<svg width="702" height="497" viewBox="0 0 702 497" fill="none" xmlns="http://www.w3.org/2000/svg">
<path d="M608.3 477L88.3 462.1C76.6082 461.775 65.4358 457.199 56.876 449.228C48.3161 441.257 42.9561 430.439 41.8 418.8L16.7 170.8C16.0317 164.162 16.7495 157.457 18.8079 151.11C20.8662 144.764 24.2203 138.914 28.6575 133.932C33.0948 128.949 38.5185 124.942 44.5851 122.166C50.6517 119.389 57.2288 117.902 63.9 117.8L642.7 109.8C649.583 109.707 656.406 111.089 662.71 113.853C669.014 116.617 674.654 120.699 679.249 125.825C683.843 130.95 687.287 137 689.349 143.568C691.41 150.135 692.042 157.068 691.2 163.9L657.5 434.8C655.998 446.685 650.13 457.587 641.037 465.387C631.944 473.186 620.275 477.325 608.3 477Z" fill="#EAF9F3"/>
<mask id="mask0_2_265" style="mask-type:luminance" maskUnits="userSpaceOnUse" x="16" y="109" width="676" height="369">
<path d="M608.3 477L88.3 462.1C76.6082 461.775 65.4358 457.199 56.876 449.228C48.3161 441.257 42.9561 430.439 41.8 418.8L16.7 170.8C16.0317 164.162 16.7495 157.457 18.8079 151.11C20.8662 144.764 24.2203 138.914 28.6575 133.932C33.0948 128.949 38.5185 124.942 44.5851 122.166C50.6517 119.389 57.2288 117.902 63.9 117.8L642.7 109.8C649.583 109.707 656.406 111.089 662.71 113.853C669.014 116.617 674.654 120.699 679.249 125.825C683.843 130.95 687.287 137 689.349 143.568C691.41 150.135 692.042 157.068 691.2 163.9L657.5 434.8C655.998 446.685 650.13 457.587 641.037 465.387C631.944 473.186 620.275 477.325 608.3 477Z" fill="white"/>
</mask>
<g mask="url(#mask0_2_265)">
<path d="M183.9 522H-231.6C-235.578 522 -239.394 520.42 -242.207 517.607C-245.02 514.794 -246.6 510.978 -246.6 507V271.3C-246.6 267.322 -245.02 263.506 -242.207 260.693C-239.394 257.88 -235.578 256.3 -231.6 256.3H183.9C187.878 256.3 191.694 257.88 194.507 260.693C197.32 263.506 198.9 267.322 198.9 271.3V507C198.9 510.978 197.32 514.794 194.507 517.607C191.694 520.42 187.878 522 183.9 522Z" stroke="#B8D8C7" stroke-width="1.8" stroke-linecap="round" stroke-linejoin="round"/>
<path d="M733 506.2H313.9C309.922 506.2 306.106 504.62 303.293 501.807C300.48 498.994 298.9 495.178 298.9 491.2V146.9C298.9 142.922 300.48 139.106 303.293 136.293C306.106 133.48 309.922 131.9 313.9 131.9H733C736.978 131.9 740.794 133.48 743.607 136.293C746.42 139.106 748 142.922 748 146.9V491.2C748 495.178 746.42 498.994 743.607 501.807C740.794 504.62 736.978 506.2 733 506.2Z" stroke="#B8D8C7" stroke-width="1.8" stroke-linecap="round" stroke-linejoin="round"/>
<path d="M84.3 186H-5.59998V177.1H84.3C84.5368 177.099 84.7714 177.144 84.9904 177.234C85.2094 177.324 85.4084 177.457 85.5758 177.624C85.7432 177.792 85.8757 177.991 85.9657 178.21C86.0557 178.429 86.1014 178.663 86.1 178.9V184.1C86.1108 184.344 86.0723 184.588 85.9869 184.816C85.9015 185.045 85.771 185.255 85.603 185.432C85.4351 185.609 85.2331 185.751 85.0093 185.848C84.7854 185.946 84.5442 185.998 84.3 186Z" stroke="#B8D8C7" stroke-width="1.8" stroke-linecap="round" stroke-linejoin="round"/>
<path d="M68 177.1H47.7C46.6424 177.103 45.6205 176.717 44.8279 176.017C44.0354 175.317 43.5273 174.35 43.4 173.3L41.8 158.9C41.734 158.296 41.796 157.684 41.982 157.105C42.1679 156.527 42.4737 155.994 42.8793 155.541C43.2849 155.088 43.7813 154.726 44.3363 154.477C44.8912 154.229 45.4921 154.101 46.1 154.1H69.6C70.2075 154.102 70.8077 154.232 71.3618 154.481C71.916 154.729 72.4117 155.092 72.8171 155.544C73.2224 155.997 73.5282 156.529 73.7147 157.107C73.9013 157.685 73.9644 158.296 73.9 158.9L72.3 173.3C72.1546 174.342 71.6412 175.298 70.8526 175.995C70.0641 176.692 69.0523 177.084 68 177.1Z" stroke="#B8D8C7" stroke-width="1.8" stroke-linecap="round" stroke-linejoin="round"/>
<path d="M55.4 154.1C55.4 154.1 47.4 153.3 45.8 142.5C45.8 142.5 53 144.6 55.3 149.7C55.3 149.7 56.3 138.3 61.7 137.2C61.7 137.2 64.1 145.7 60.3 149.9C60.3 149.9 63.2 145.1 70.6 145.2C69.9008 147.306 68.6969 149.209 67.0933 150.743C65.4897 152.277 63.5351 153.395 61.4 154" fill="#B8D8C7"/>
<path d="M180.7 306.1H90.5C89.3885 306.092 88.3248 305.647 87.5388 304.861C86.7529 304.075 86.3079 303.011 86.3 301.9V274.5C86.3079 273.389 86.7529 272.325 87.5388 271.539C88.3248 270.753 89.3885 270.308 90.5 270.3H180.7C181.812 270.308 182.875 270.753 183.661 271.539C184.447 272.325 184.892 273.389 184.9 274.5V301.9C184.914 302.455 184.814 303.008 184.608 303.523C184.402 304.039 184.093 304.508 183.7 304.9C183.308 305.293 182.839 305.602 182.323 305.808C181.808 306.014 181.255 306.114 180.7 306.1Z" stroke="#B8D8C7" stroke-width="1.8" stroke-linecap="round" stroke-linejoin="round"/>
<path d="M146 279.9H125.2C124.805 279.89 124.43 279.729 124.151 279.449C123.871 279.17 123.71 278.795 123.7 278.4C123.71 278.005 123.871 277.63 124.151 277.351C124.43 277.071 124.805 276.91 125.2 276.9H146C146.395 276.91 146.77 277.071 147.049 277.351C147.329 277.63 147.49 278.005 147.5 278.4C147.49 278.795 147.329 279.17 147.049 279.449C146.77 279.729 146.395 279.89 146 279.9Z" fill="#B8D8C7"/>
<path d="M180.7 351.9H90.5C89.3885 351.892 88.3248 351.447 87.5388 350.661C86.7529 349.875 86.3079 348.811 86.3 347.7V320.3C86.3079 319.189 86.7529 318.125 87.5388 317.339C88.3248 316.553 89.3885 316.108 90.5 316.1H180.7C181.812 316.108 182.875 316.553 183.661 317.339C184.447 318.125 184.892 319.189 184.9 320.3V347.7C184.914 348.255 184.814 348.808 184.608 349.323C184.402 349.839 184.093 350.308 183.7 350.7C183.308 351.093 182.839 351.402 182.323 351.608C181.808 351.814 181.255 351.914 180.7 351.9Z" stroke="#B8D8C7" stroke-width="1.8" stroke-linecap="round" stroke-linejoin="round"/>
<path d="M146 325.7H125.2C124.805 325.69 124.43 325.529 124.151 325.249C123.871 324.97 123.71 324.595 123.7 324.2C123.71 323.805 123.871 323.43 124.151 323.151C124.43 322.871 124.805 322.71 125.2 322.7H146C146.395 322.71 146.77 322.871 147.049 323.151C147.329 323.43 147.49 323.805 147.5 324.2C147.504 324.398 147.468 324.595 147.394 324.779C147.32 324.963 147.21 325.13 147.07 325.27C146.93 325.41 146.763 325.52 146.579 325.594C146.395 325.668 146.198 325.704 146 325.7Z" fill="#B8D8C7"/>
<path d="M643.9 384.2H553.7C552.589 384.192 551.525 383.747 550.739 382.961C549.953 382.175 549.508 381.111 549.5 380V352.6C549.508 351.489 549.953 350.425 550.739 349.639C551.525 348.853 552.589 348.408 553.7 348.4H643.9C645.012 348.408 646.075 348.853 646.861 349.639C647.647 350.425 648.092 351.489 648.1 352.6V380C648.114 380.555 648.014 381.108 647.808 381.623C647.602 382.139 647.293 382.608 646.9 383C646.508 383.393 646.039 383.702 645.523 383.908C645.008 384.114 644.455 384.214 643.9 384.2Z" stroke="#B8D8C7" stroke-width="1.8" stroke-linecap="round" stroke-linejoin="round"/>
<path d="M609.2 358.1H588.4C588.005 358.09 587.63 357.929 587.351 357.649C587.071 357.37 586.91 356.995 586.9 356.6C586.91 356.205 587.071 355.83 587.351 355.551C587.63 355.271 588.005 355.11 588.4 355.1H609.2C609.595 355.11 609.97 355.271 610.249 355.551C610.529 355.83 610.69 356.205 610.7 356.6C610.69 356.995 610.529 357.37 610.249 357.649C609.97 357.929 609.595 358.09 609.2 358.1Z" fill="#B8D8C7"/>
<path d="M528.1 384.2H437.9C436.789 384.192 435.725 383.747 434.939 382.961C434.153 382.175 433.708 381.111 433.7 380V352.6C433.708 351.489 434.153 350.425 434.939 349.639C435.725 348.853 436.789 348.408 437.9 348.4H528.1C529.211 348.408 530.275 348.853 531.061 349.639C531.847 350.425 532.292 351.489 532.3 352.6V380C532.292 381.111 531.847 382.175 531.061 382.961C530.275 383.747 529.211 384.192 528.1 384.2Z" stroke="#B8D8C7" stroke-width="1.8" stroke-linecap="round" stroke-linejoin="round"/>
<path d="M493.4 358.1H472.6C472.205 358.09 471.83 357.929 471.551 357.649C471.271 357.37 471.11 356.995 471.1 356.6C471.11 356.205 471.271 355.83 471.551 355.551C471.83 355.271 472.205 355.11 472.6 355.1H493.4C493.795 355.11 494.17 355.271 494.449 355.551C494.729 355.83 494.89 356.205 494.9 356.6C494.89 356.995 494.729 357.37 494.449 357.649C494.17 357.929 493.795 358.09 493.4 358.1Z" fill="#B8D8C7"/>
<path d="M65.7 306.1H-24.5C-25.6115 306.092 -26.6752 305.647 -27.4612 304.861C-28.2471 304.075 -28.6921 303.011 -28.7 301.9V274.5C-28.6921 273.389 -28.2471 272.325 -27.4612 271.539C-26.6752 270.753 -25.6115 270.308 -24.5 270.3H65.7C66.8115 270.308 67.8752 270.753 68.6612 271.539C69.4471 272.325 69.8922 273.389 69.9 274.5V301.9C69.9137 302.455 69.8145 303.008 69.6083 303.523C69.402 304.039 69.0932 304.508 68.7004 304.9C68.3076 305.293 67.8391 305.602 67.3234 305.808C66.8076 306.014 66.2553 306.114 65.7 306.1Z" stroke="#B8D8C7" stroke-width="1.8" stroke-linecap="round" stroke-linejoin="round"/>
<path d="M31 279.9H10.2C9.80538 279.89 9.4297 279.729 9.15056 279.449C8.87142 279.17 8.71014 278.795 8.70001 278.4C8.71014 278.005 8.87142 277.63 9.15056 277.351C9.4297 277.071 9.80538 276.91 10.2 276.9H31C31.3946 276.91 31.7703 277.071 32.0495 277.351C32.3286 277.63 32.4899 278.005 32.5 278.4C32.5041 278.598 32.4681 278.795 32.3942 278.979C32.3202 279.163 32.2099 279.33 32.0698 279.47C31.9297 279.61 31.7627 279.72 31.5788 279.794C31.395 279.868 31.1981 279.904 31 279.9Z" fill="#B8D8C7"/>
<path d="M65.7 351.9H-24.5C-25.6115 351.892 -26.6752 351.447 -27.4612 350.661C-28.2471 349.875 -28.6921 348.811 -28.7 347.7V320.3C-28.6921 319.189 -28.2471 318.125 -27.4612 317.339C-26.6752 316.553 -25.6115 316.108 -24.5 316.1H65.7C66.8115 316.108 67.8752 316.553 68.6612 317.339C69.4471 318.125 69.8922 319.189 69.9 320.3V347.7C69.9137 348.255 69.8145 348.808 69.6083 349.323C69.402 349.839 69.0932 350.308 68.7004 350.7C68.3076 351.093 67.8391 351.402 67.3234 351.608C66.8076 351.814 66.2553 351.914 65.7 351.9Z" stroke="#B8D8C7" stroke-width="1.8" stroke-linecap="round" stroke-linejoin="round"/>
<path d="M31 325.7H10.2C9.80538 325.69 9.4297 325.529 9.15056 325.249C8.87142 324.97 8.71014 324.595 8.70001 324.2C8.71014 323.805 8.87142 323.43 9.15056 323.151C9.4297 322.871 9.80538 322.71 10.2 322.7H31C31.3946 322.71 31.7703 322.871 32.0495 323.151C32.3286 323.43 32.4899 323.805 32.5 324.2C32.5116 324.4 32.4808 324.6 32.4095 324.788C32.3383 324.975 32.2282 325.145 32.0865 325.286C31.9448 325.428 31.7748 325.538 31.5875 325.61C31.4003 325.681 31.2 325.712 31 325.7Z" fill="#B8D8C7"/>
<path d="M775.2 236.7H320.2C318.984 236.687 317.822 236.198 316.962 235.338C316.102 234.478 315.613 233.316 315.6 232.1V152.4C315.613 151.184 316.102 150.022 316.962 149.162C317.822 148.302 318.984 147.813 320.2 147.8H775.2C776.416 147.813 777.578 148.302 778.438 149.162C779.298 150.022 779.787 151.184 779.8 152.4V232.1C779.801 232.704 779.683 233.303 779.453 233.862C779.222 234.421 778.883 234.928 778.456 235.356C778.028 235.783 777.521 236.122 776.962 236.353C776.403 236.583 775.804 236.701 775.2 236.7Z" stroke="#B8D8C7" stroke-width="1.8" stroke-linecap="round" stroke-linejoin="round"/>
<path d="M775.2 335.6H320.2C318.984 335.587 317.822 335.098 316.962 334.238C316.102 333.378 315.613 332.216 315.6 331V251.3C315.613 250.084 316.102 248.922 316.962 248.062C317.822 247.202 318.984 246.713 320.2 246.7H775.2C776.416 246.713 777.578 247.202 778.438 248.062C779.298 248.922 779.787 250.084 779.8 251.3V331C779.809 331.607 779.697 332.209 779.469 332.771C779.241 333.334 778.903 333.845 778.474 334.274C778.045 334.703 777.534 335.041 776.971 335.269C776.409 335.497 775.807 335.609 775.2 335.6Z" stroke="#B8D8C7" stroke-width="1.8" stroke-linecap="round" stroke-linejoin="round"/>
<path d="M356.2 186.4H346.3V236.7H356.2V186.4Z" stroke="#B8D8C7" stroke-width="1.8" stroke-linecap="round" stroke-linejoin="round"/>
<path d="M366.4 200.1H356.1V236.7H366.4V200.1Z" stroke="#B8D8C7" stroke-width="1.8" stroke-linecap="round" stroke-linejoin="round"/>
<path d="M654.5 285.2H644.6V335.5H654.5V285.2Z" stroke="#B8D8C7" stroke-width="1.8" stroke-linecap="round" stroke-linejoin="round"/>
<path d="M664.8 298.9H654.5V335.5H664.8V298.9Z" stroke="#B8D8C7" stroke-width="1.8" stroke-linecap="round" stroke-linejoin="round"/>
<path d="M634.4 285.2H624.5V335.5H634.4V285.2Z" stroke="#B8D8C7" stroke-width="1.8" stroke-linecap="round" stroke-linejoin="round"/>
<path d="M615.158 284.051L600.015 332.018L609.456 334.998L624.598 287.031L615.158 284.051Z" stroke="#B8D8C7" stroke-width="1.8" stroke-linecap="round" stroke-linejoin="round"/>
<path d="M644.7 298.9H634.4V335.5H644.7V298.9Z" stroke="#B8D8C7" stroke-width="1.8" stroke-linecap="round" stroke-linejoin="round"/>
<path d="M521 186.4H511.1V236.7H521V186.4Z" stroke="#B8D8C7" stroke-width="1.8" stroke-linecap="round" stroke-linejoin="round"/>
<path d="M531.3 200.1H521V236.7H531.3V200.1Z" stroke="#B8D8C7" stroke-width="1.8" stroke-linecap="round" stroke-linejoin="round"/>
<path d="M423.2 186.4H413.3V236.7H423.2V186.4Z" stroke="#B8D8C7" stroke-width="1.8" stroke-linecap="round" stroke-linejoin="round"/>
<path d="M403.969 185.248L388.826 233.214L398.267 236.195L413.41 188.228L403.969 185.248Z" stroke="#B8D8C7" stroke-width="1.8" stroke-linecap="round" stroke-linejoin="round"/>
<path d="M433.5 200.1H423.2V236.7H433.5V200.1Z" stroke="#B8D8C7" stroke-width="1.8" stroke-linecap="round" stroke-linejoin="round"/>
<path d="M654.4 193L655.5 178.1C655.521 177.867 655.493 177.632 655.416 177.41C655.34 177.189 655.217 176.986 655.056 176.816C654.896 176.646 654.7 176.512 654.484 176.423C654.267 176.334 654.034 176.292 653.8 176.3H645.2C644.968 176.301 644.74 176.349 644.527 176.441C644.315 176.533 644.123 176.668 643.964 176.836C643.805 177.004 643.682 177.203 643.603 177.42C643.523 177.638 643.488 177.869 643.5 178.1L644.6 193C644.6 193 635.6 198.8 635.7 203.6C635.8 207.3 638 225 639 232.8C639.127 233.85 639.635 234.817 640.428 235.517C641.22 236.217 642.242 236.603 643.3 236.6H655.7C656.758 236.603 657.78 236.217 658.572 235.517C659.365 234.817 659.873 233.85 660 232.8C661 225 663.2 207.3 663.3 203.6C663.4 198.7 654.4 193 654.4 193Z" fill="#B8D8C7"/>
<path d="M614.5 193L615.6 178.1C615.621 177.867 615.593 177.632 615.516 177.41C615.44 177.189 615.317 176.986 615.156 176.816C614.996 176.646 614.8 176.512 614.584 176.423C614.367 176.334 614.134 176.292 613.9 176.3H605.3C605.068 176.301 604.84 176.349 604.627 176.441C604.415 176.533 604.223 176.668 604.064 176.836C603.905 177.004 603.782 177.203 603.702 177.42C603.623 177.638 603.588 177.869 603.6 178.1L604.7 193C604.7 193 595.7 198.8 595.8 203.6C595.9 207.3 598.1 225 599.1 232.8C599.227 233.85 599.735 234.817 600.528 235.517C601.32 236.217 602.342 236.603 603.4 236.6H615.8C616.858 236.603 617.88 236.217 618.672 235.517C619.465 234.817 619.973 233.85 620.1 232.8C621.1 225 623.3 207.3 623.4 203.6C623.5 198.7 614.5 193 614.5 193Z" fill="#B8D8C7"/>
<path d="M15.2 430H971" stroke="#B8D8C7" stroke-width="1.8" stroke-linecap="round" stroke-linejoin="round"/>
</g>
<mask id="mask1_2_265" style="mask-type:luminance" maskUnits="userSpaceOnUse" x="16" y="109" width="676" height="369">
<path d="M608.3 477L88.3 462.1C76.6082 461.775 65.4358 457.199 56.876 449.228C48.3161 441.257 42.9561 430.439 41.8 418.8L16.7 170.8C16.0317 164.162 16.7495 157.457 18.8079 151.11C20.8662 144.764 24.2203 138.914 28.6575 133.932C33.0948 128.949 38.5185 124.942 44.5851 122.166C50.6517 119.389 57.2288 117.902 63.9 117.8L642.7 109.8C649.583 109.707 656.406 111.089 662.71 113.853C669.014 116.617 674.654 120.699 679.249 125.825C683.843 130.95 687.287 137 689.349 143.568C691.41 150.135 692.042 157.068 691.2 163.9L657.5 434.8C655.998 446.685 650.13 457.587 641.037 465.387C631.944 473.186 620.275 477.325 608.3 477Z" fill="white"/>
</mask>
<g mask="url(#mask1_2_265)">
<path d="M103.1 440.2V560.5H111.2L113.8 440.2H103.1Z" fill="#B0D7C0"/>
<path d="M113.8 440.2H103.1V453.3H113.5L113.8 440.2Z" fill="#6DAFA7"/>
<path d="M583.6 440.2V560.5H575.4L572.9 440.2H583.6Z" fill="#B0D7C0"/>
<path d="M572.9 440.2H583.6V453.3H573.2L572.9 440.2Z" fill="#6DAFA7"/>
<path d="M618.2 435.3H68.5L127 409.7H559.6L618.2 435.3Z" fill="black"/>
<path d="M618.2 435.3H68.5V443H618.2V435.3Z" fill="#B0D7C0"/>
</g>
<path d="M133.4 376.4L120.7 383.7C120.241 383.967 119.734 384.14 119.208 384.209C118.682 384.278 118.148 384.241 117.636 384.102C117.124 383.962 116.645 383.722 116.227 383.396C115.809 383.069 115.46 382.663 115.2 382.2L78.8 319.4C78.5332 318.941 78.3603 318.434 78.2913 317.908C78.2223 317.382 78.2587 316.848 78.3983 316.336C78.5379 315.824 78.7779 315.345 79.1044 314.927C79.4309 314.509 79.8373 314.16 80.3 313.9L93 306.6C93.4586 306.333 93.9656 306.16 94.4917 306.091C95.0177 306.022 95.5522 306.059 96.0641 306.198C96.576 306.338 97.0549 306.578 97.4731 306.904C97.8913 307.231 98.2404 307.637 98.5 308.1L134.9 370.9C135.42 371.831 135.554 372.928 135.274 373.956C134.993 374.985 134.32 375.862 133.4 376.4Z" fill="#22272E"/>
<path d="M124.5 367.5C124.103 366.819 123.514 366.269 122.807 365.922C122.099 365.574 121.304 365.443 120.523 365.546C119.741 365.648 119.007 365.979 118.413 366.498C117.819 367.016 117.391 367.698 117.184 368.459C116.976 369.22 116.998 370.025 117.247 370.773C117.495 371.521 117.96 372.179 118.581 372.665C119.203 373.15 119.954 373.44 120.74 373.5C121.526 373.56 122.312 373.386 123 373C123.92 372.462 124.593 371.585 124.874 370.556C125.154 369.528 125.02 368.431 124.5 367.5Z" fill="#63737A"/>
<path d="M107.8 357.5L117.1 352.1" stroke="#63737A" stroke-width="1.8" stroke-linecap="round" stroke-linejoin="round"/>
<path d="M105.2 353.1L114.6 347.7" stroke="#63737A" stroke-width="1.8" stroke-linecap="round" stroke-linejoin="round"/>
<path d="M152.6 333.5L144.4 368.2C144.1 369.2 148.9 371.7 155.3 373.9C161.7 376.1 167.1 377.1 167.4 376.2L182.5 343.9L152.6 333.5Z" fill="black"/>
<path d="M174.7 352.6L180.3 354.5C180.881 354.698 181.412 355.02 181.857 355.443C182.301 355.865 182.65 356.379 182.878 356.949C183.106 357.519 183.208 358.131 183.177 358.744C183.146 359.357 182.984 359.956 182.7 360.5L178 369.5C177.521 370.405 176.73 371.106 175.775 371.474C174.819 371.842 173.762 371.851 172.8 371.5L166.7 369.4" stroke="black" stroke-width="1.8" stroke-linecap="round" stroke-linejoin="round"/>
<path d="M182.5 344C182.1 345.2 175 343.9 166.8 341C158.6 338.1 152.2 334.8 152.6 333.5C153 332.2 160.1 333.6 168.3 336.5C176.5 339.4 182.9 342.7 182.5 344Z" fill="#6DAFA7"/>
<path d="M235.7 163.8L121 194.2C120.023 194.466 119 194.517 118.001 194.35C117.003 194.182 116.053 193.8 115.216 193.23C114.379 192.66 113.676 191.914 113.156 191.046C112.635 190.178 112.309 189.207 112.2 188.2L97.9 64.5C97.8143 63.8007 97.8856 63.0911 98.1086 62.4229C98.3316 61.7546 98.7008 61.1445 99.1893 60.6368C99.6778 60.1292 100.273 59.7368 100.932 59.4883C101.592 59.2397 102.298 59.1412 103 59.2L219.6 67.3C221.209 67.399 222.734 68.05 223.918 69.1431C225.102 70.2362 225.873 71.7045 226.1 73.3L239.1 158.5C239.301 159.649 239.063 160.831 238.434 161.813C237.804 162.795 236.828 163.504 235.7 163.8Z" fill="#63737A"/>
<path d="M241 164.2L125.1 194.9C124.11 195.155 123.077 195.196 122.071 195.019C121.064 194.841 120.107 194.451 119.264 193.873C118.42 193.295 117.711 192.543 117.182 191.668C116.654 190.793 116.319 189.815 116.2 188.8L101.8 63.8C101.724 63.0894 101.804 62.3707 102.036 61.6946C102.267 61.0184 102.644 60.4012 103.14 59.8864C103.635 59.3716 104.238 58.9717 104.905 58.7149C105.572 58.4581 106.287 58.3506 107 58.4L224.9 66.5C226.518 66.6005 228.054 67.2497 229.254 68.3405C230.454 69.4313 231.246 70.8985 231.5 72.5L244.7 158.6C244.83 159.818 244.532 161.043 243.857 162.065C243.182 163.087 242.171 163.842 241 164.2Z" fill="#22272E"/>
<path d="M150.3 82.1L122 81.7C121.724 81.7035 121.457 81.6022 121.253 81.4166C121.049 81.2311 120.923 80.975 120.9 80.7L120.5 77.5C120.481 77.3413 120.494 77.1802 120.54 77.027C120.586 76.8738 120.663 76.7317 120.766 76.6096C120.869 76.4875 120.997 76.3881 121.14 76.3176C121.284 76.2471 121.44 76.2071 121.6 76.2L150 77C150.276 76.9965 150.543 77.0978 150.747 77.2834C150.951 77.469 151.077 77.7251 151.1 78L151.5 80.9C151.495 81.2167 151.367 81.5189 151.143 81.7428C150.919 81.9668 150.617 82.0949 150.3 82.1Z" fill="#6DAFA7"/>
<path d="M122.3 92.7L177.1 92" stroke="#63737A" stroke-width="1.8" stroke-linecap="round" stroke-linejoin="round"/>
<path d="M123.7 103.8L158.4 102.4" stroke="#63737A" stroke-width="1.8" stroke-linecap="round" stroke-linejoin="round"/>
<path d="M136.7 172.2L133.4 172.9C133.228 172.943 133.048 172.947 132.874 172.913C132.7 172.879 132.535 172.807 132.392 172.702C132.249 172.597 132.131 172.461 132.046 172.306C131.961 172.15 131.911 171.977 131.9 171.8L128.6 144.1C128.578 143.935 128.589 143.768 128.632 143.608C128.676 143.448 128.751 143.298 128.854 143.167C128.956 143.037 129.084 142.928 129.229 142.848C129.375 142.767 129.535 142.717 129.7 142.7L133 142.2C133.165 142.178 133.332 142.189 133.492 142.232C133.652 142.276 133.802 142.351 133.933 142.454C134.063 142.556 134.172 142.684 134.252 142.829C134.333 142.975 134.383 143.135 134.4 143.3L137.8 170.8C137.787 171.119 137.674 171.427 137.476 171.678C137.279 171.929 137.007 172.112 136.7 172.2Z" fill="black"/>
<path d="M148.4 168.3L142.9 124.3C142.878 124.135 142.889 123.968 142.932 123.808C142.976 123.648 143.051 123.498 143.154 123.367C143.256 123.237 143.384 123.128 143.529 123.048C143.675 122.967 143.835 122.917 144 122.9L146.8 122.6C146.96 122.572 147.124 122.58 147.281 122.622C147.438 122.665 147.583 122.741 147.707 122.846C147.831 122.951 147.93 123.082 147.998 123.229C148.066 123.377 148.101 123.538 148.1 123.7L153.6 167.3C153.637 167.616 153.555 167.934 153.37 168.193C153.185 168.452 152.911 168.633 152.6 168.7L149.7 169.3C149.2 169.5 148.5 169 148.4 168.3Z" fill="#6DAFA7"/>
<path d="M163.7 165L161.6 148.8C161.556 148.483 161.635 148.161 161.821 147.901C162.007 147.64 162.286 147.461 162.6 147.4L165 147C165.165 146.978 165.332 146.989 165.492 147.032C165.652 147.076 165.802 147.151 165.933 147.254C166.063 147.356 166.172 147.484 166.252 147.629C166.333 147.775 166.383 147.935 166.4 148.1L168.5 164.2C168.537 164.516 168.455 164.834 168.27 165.093C168.085 165.352 167.811 165.533 167.5 165.6L165.1 166.1C164.934 166.13 164.764 166.125 164.601 166.084C164.438 166.043 164.285 165.969 164.153 165.865C164.02 165.761 163.912 165.63 163.834 165.481C163.756 165.332 163.71 165.168 163.7 165Z" fill="black"/>
<path d="M181.3 162.6L179.2 163C179.035 163.044 178.863 163.053 178.695 163.025C178.526 162.997 178.366 162.934 178.224 162.839C178.082 162.745 177.962 162.621 177.871 162.476C177.781 162.331 177.723 162.169 177.7 162L176.5 153.3C176.456 152.983 176.535 152.661 176.721 152.401C176.907 152.14 177.186 151.961 177.5 151.9L179.6 151.5C179.766 151.47 179.936 151.475 180.099 151.516C180.262 151.557 180.415 151.631 180.547 151.735C180.68 151.839 180.788 151.97 180.866 152.119C180.944 152.268 180.99 152.432 181 152.6L182.2 161.3C182.25 161.591 182.183 161.891 182.015 162.134C181.847 162.377 181.59 162.544 181.3 162.6Z" fill="#F4C2C9"/>
<path d="M222.1 150.5L213.5 131.2L220.9 114.1C224.3 117.7 226.8 123.1 227.8 129.2C228.9 137.9 226.6 146.2 222.1 150.5Z" fill="#6DAFA7"/>
<path d="M220.8 114.1L213.4 131.2L198.9 119.6C201 113.7 205.1 109.6 210.2 109.3C214 109 217.8 110.8 220.8 114.1Z" fill="#F4C2C9"/>
<path d="M222.1 150.5C220.611 151.959 218.738 152.964 216.7 153.4C208.3 155.2 199.6 146.2 197.8 133.3C197.118 128.676 197.494 123.957 198.9 119.5L213.4 131.1L222.1 150.5Z" fill="black"/>
<path d="M319 65.3C323.318 73.4829 328.127 81.3973 333.4 89C333.768 89.5397 334.24 90 334.789 90.3537C335.338 90.7075 335.953 90.9474 336.596 91.0593C337.24 91.1712 337.899 91.1528 338.535 91.0052C339.171 90.8576 339.772 90.5838 340.3 90.2C344.993 87.0226 349.905 84.1821 355 81.7C356.219 81.0847 357.163 80.0342 357.644 78.7564C358.126 77.4787 358.11 76.0667 357.6 74.8C354.9 68.5 352.1 60.1 349.8 52.7C349.085 50.3991 347.878 48.2815 346.263 46.4943C344.647 44.7071 342.661 43.2933 340.444 42.3511C338.227 41.4089 335.831 40.961 333.422 41.0386C331.014 41.1161 328.652 41.7172 326.5 42.8C324.508 43.7599 322.728 45.1099 321.267 46.7699C319.806 48.43 318.693 50.3664 317.993 52.4644C317.294 54.5624 317.023 56.7795 317.196 58.9843C317.368 61.189 317.982 63.3367 319 65.3Z" fill="black"/>
<path d="M352.2 76.2C352.918 76.1696 353.632 76.3182 354.277 76.6324C354.923 76.9466 355.481 77.4166 355.9 78C358.048 81.217 360.679 84.0839 363.7 86.5C368.4 89.8 385.5 92.7 386.9 95.2C388.3 97.7 384.2 98.5 381.4 98.2C378.6 97.9 376.2 97.6 375.6 98.8C375 100 375.8 105 379.7 108.5C383.6 112 390.6 115.7 390.9 118.9C391.2 122.1 383.3 119 379.8 116.8C376.3 114.6 375.3 114.2 375.3 114.2C375.3 114.2 374.8 115.2 372 116.2C370.4 116.7 368.7 115.4 367.2 115.7C365.7 116 359 119.4 355.8 117.8C353.5 116.6 348.4 105 345.9 101.9C344.1 99.6 339.8 93 337.7 89.7C337.269 89.051 337.031 88.2932 337.013 87.5145C336.996 86.7357 337.199 85.9678 337.6 85.3C338.983 82.6046 341.071 80.3348 343.642 78.7324C346.213 77.1299 349.171 76.2547 352.2 76.2Z" fill="#F4C2C9"/>
<path d="M375.2 114.3C373.237 113.31 371.392 112.103 369.7 110.7C369.078 110.036 368.54 109.297 368.1 108.5" stroke="#E26E85" stroke-width="1.8" stroke-linecap="round" stroke-linejoin="round"/>
<path d="M367.1 115.7C365.951 115.233 364.847 114.664 363.8 114C362.97 113.111 362.233 112.139 361.6 111.1" stroke="#E26E85" stroke-width="1.8" stroke-linecap="round" stroke-linejoin="round"/>
<path d="M361.3 117.7C360.294 117.306 359.35 116.767 358.5 116.1C357.749 115.346 357.047 114.545 356.4 113.7" stroke="#E26E85" stroke-width="1.8" stroke-linecap="round" stroke-linejoin="round"/>
<path d="M286 144.4C286.048 144.225 286.153 144.071 286.297 143.961C286.442 143.851 286.618 143.791 286.8 143.791C286.982 143.791 287.158 143.851 287.303 143.961C287.447 144.071 287.552 144.225 287.6 144.4C287.955 145.769 288.566 147.058 289.4 148.2C290.553 149.015 291.839 149.623 293.2 150C293.375 150.048 293.529 150.153 293.639 150.297C293.749 150.442 293.809 150.618 293.809 150.8C293.809 150.982 293.749 151.158 293.639 151.303C293.529 151.447 293.375 151.552 293.2 151.6C291.831 151.955 290.542 152.566 289.4 153.4C288.585 154.553 287.977 155.839 287.6 157.2C287.552 157.375 287.447 157.529 287.303 157.639C287.158 157.749 286.982 157.809 286.8 157.809C286.618 157.809 286.442 157.749 286.297 157.639C286.153 157.529 286.048 157.375 286 157.2C285.645 155.831 285.034 154.542 284.2 153.4C283.047 152.585 281.761 151.977 280.4 151.6C280.225 151.552 280.071 151.447 279.961 151.303C279.851 151.158 279.791 150.982 279.791 150.8C279.791 150.618 279.851 150.442 279.961 150.297C280.071 150.153 280.225 150.048 280.4 150C281.837 149.857 283.179 149.221 284.2 148.2C285.221 147.179 285.857 145.837 286 144.4Z" fill="#6DAFA7"/>
<path d="M298.1 86.7C298.141 86.5728 298.221 86.4619 298.329 86.3832C298.436 86.3045 298.567 86.2621 298.7 86.2621C298.834 86.2621 298.964 86.3045 299.071 86.3832C299.179 86.4619 299.259 86.5728 299.3 86.7C299.548 87.6782 299.99 88.5965 300.6 89.4C301.416 89.9902 302.33 90.4304 303.3 90.7C303.433 90.7346 303.55 90.8122 303.634 90.9208C303.718 91.0294 303.764 91.1628 303.764 91.3C303.764 91.4372 303.718 91.5706 303.634 91.6792C303.55 91.7878 303.433 91.8654 303.3 91.9C302.322 92.1475 301.404 92.5897 300.6 93.2C300.01 94.0157 299.57 94.93 299.3 95.9C299.259 96.0271 299.179 96.1381 299.071 96.2168C298.964 96.2955 298.834 96.3379 298.7 96.3379C298.567 96.3379 298.436 96.2955 298.329 96.2168C298.221 96.1381 298.141 96.0271 298.1 95.9C297.852 94.9218 297.41 94.0035 296.8 93.2C295.984 92.6098 295.07 92.1696 294.1 91.9C293.967 91.8654 293.85 91.7878 293.766 91.6792C293.682 91.5706 293.636 91.4372 293.636 91.3C293.636 91.1628 293.682 91.0294 293.766 90.9208C293.85 90.8122 293.967 90.7346 294.1 90.7C295.121 90.5843 296.073 90.1257 296.799 89.3991C297.526 88.6726 297.984 87.721 298.1 86.7Z" fill="#6DAFA7"/>
<path d="M392.8 136.4C392.835 136.267 392.912 136.15 393.021 136.066C393.129 135.982 393.263 135.936 393.4 135.936C393.537 135.936 393.671 135.982 393.779 136.066C393.888 136.15 393.965 136.267 394 136.4C394.248 137.378 394.69 138.296 395.3 139.1C396.139 139.651 397.046 140.088 398 140.4C398.127 140.441 398.238 140.521 398.317 140.629C398.395 140.736 398.438 140.866 398.438 141C398.438 141.134 398.395 141.264 398.317 141.371C398.238 141.479 398.127 141.559 398 141.6C397.022 141.848 396.104 142.29 395.3 142.9C394.71 143.716 394.27 144.63 394 145.6C393.959 145.727 393.879 145.838 393.771 145.917C393.664 145.995 393.534 146.038 393.4 146.038C393.267 146.038 393.136 145.995 393.029 145.917C392.921 145.838 392.841 145.727 392.8 145.6C392.552 144.622 392.11 143.704 391.5 142.9C390.684 142.31 389.77 141.87 388.8 141.6C388.673 141.559 388.562 141.479 388.483 141.371C388.405 141.264 388.362 141.134 388.362 141C388.362 140.866 388.405 140.736 388.483 140.629C388.562 140.521 388.673 140.441 388.8 140.4C389.778 140.152 390.696 139.71 391.5 139.1C392.149 138.321 392.595 137.393 392.8 136.4Z" fill="#6DAFA7"/>
<path d="M308.2 119.3C308.4 118.8 309 118.8 309.1 119.3C309.336 120.074 309.672 120.813 310.1 121.5C310.741 122.008 311.496 122.352 312.3 122.5C312.8 122.7 312.8 123.3 312.3 123.4C311.526 123.636 310.787 123.972 310.1 124.4C309.592 125.041 309.248 125.796 309.1 126.6C308.9 127.1 308.3 127.1 308.2 126.6C307.964 125.826 307.628 125.086 307.2 124.4C306.559 123.892 305.804 123.548 305 123.4C304.5 123.2 304.5 122.6 305 122.5C305.774 122.264 306.514 121.928 307.2 121.5C307.648 120.824 307.985 120.082 308.2 119.3Z" fill="black"/>
<path d="M400.8 163.1C400.848 162.925 400.953 162.771 401.097 162.661C401.242 162.551 401.418 162.491 401.6 162.491C401.782 162.491 401.958 162.551 402.103 162.661C402.247 162.771 402.352 162.925 402.4 163.1C402.755 164.469 403.366 165.758 404.2 166.9C405.353 167.715 406.639 168.324 408 168.7C408.175 168.748 408.329 168.853 408.439 168.997C408.549 169.142 408.609 169.318 408.609 169.5C408.609 169.682 408.549 169.858 408.439 170.003C408.329 170.147 408.175 170.252 408 170.3C406.631 170.655 405.342 171.266 404.2 172.1C403.385 173.253 402.777 174.539 402.4 175.9C402.352 176.075 402.247 176.229 402.103 176.339C401.958 176.449 401.782 176.509 401.6 176.509C401.418 176.509 401.242 176.449 401.097 176.339C400.953 176.229 400.848 176.075 400.8 175.9C400.445 174.531 399.834 173.242 399 172.1C397.847 171.285 396.561 170.676 395.2 170.3C395.025 170.252 394.871 170.147 394.761 170.003C394.651 169.858 394.591 169.682 394.591 169.5C394.591 169.318 394.651 169.142 394.761 168.997C394.871 168.853 395.025 168.748 395.2 168.7C396.569 168.345 397.858 167.734 399 166.9C399.795 165.735 400.402 164.453 400.8 163.1Z" fill="black"/>
<path d="M569.8 143.2C569.8 143.2 568.4 144.6 571 155.2C572.727 161.879 575.604 168.207 579.5 173.9C581.814 171.706 583.519 168.95 584.448 165.9C585.377 162.85 585.498 159.611 584.8 156.5C582.6 145.5 569.8 143.2 569.8 143.2Z" fill="#22272E"/>
<path d="M571.3 174.4C571.3 174.4 569.3 175 564.6 179.9C559.9 184.8 553 187.3 544.8 191C536.6 194.7 532.6 177.5 534.7 168.8C536.8 160.1 545.7 154.1 545.7 154.1L563.2 156.5C563.2 156.5 569 149.6 571.3 154.1C573.6 158.6 573.3 168.7 571.3 174.4Z" fill="#F4C2C9"/>
<path d="M556.3 206.3L496.7 220C496.083 220.145 495.443 220.168 494.817 220.065C494.191 219.963 493.592 219.738 493.053 219.404C492.514 219.069 492.047 218.632 491.677 218.116C491.308 217.601 491.044 217.018 490.9 216.4L474 143.2C473.855 142.583 473.832 141.943 473.935 141.317C474.037 140.691 474.262 140.092 474.596 139.553C474.931 139.014 475.368 138.547 475.884 138.177C476.399 137.808 476.982 137.544 477.6 137.4L537.2 123.7C537.817 123.555 538.457 123.532 539.083 123.635C539.709 123.737 540.308 123.962 540.847 124.296C541.386 124.631 541.853 125.068 542.223 125.584C542.592 126.099 542.856 126.682 543 127.3L559.8 200.5C559.965 201.111 560.005 201.749 559.917 202.376C559.829 203.003 559.615 203.605 559.288 204.147C558.961 204.689 558.528 205.159 558.014 205.529C557.501 205.899 556.918 206.161 556.3 206.3Z" fill="#22272E"/>
<path d="M531.2 144.7L492.4 153.6C492.098 153.672 491.784 153.682 491.478 153.63C491.171 153.577 490.878 153.464 490.617 153.296C490.356 153.128 490.131 152.908 489.956 152.652C489.781 152.395 489.66 152.105 489.6 151.8C489.528 151.498 489.518 151.184 489.57 150.878C489.623 150.571 489.736 150.279 489.904 150.017C490.072 149.756 490.292 149.531 490.549 149.356C490.806 149.181 491.095 149.06 491.4 149L530.2 140.1C530.502 140.028 530.816 140.018 531.122 140.07C531.429 140.123 531.721 140.236 531.983 140.404C532.244 140.572 532.469 140.792 532.644 141.049C532.819 141.305 532.94 141.595 533 141.9C533.089 142.505 532.956 143.123 532.625 143.638C532.294 144.153 531.788 144.53 531.2 144.7Z" fill="black"/>
<path d="M492.3 163.9L535.7 153.9" stroke="#63737A" stroke-width="1.8" stroke-linecap="round" stroke-linejoin="round"/>
<path d="M494 171.2L537.4 161.2" stroke="#63737A" stroke-width="1.8" stroke-linecap="round" stroke-linejoin="round"/>
<path d="M519.9 200L503.9 203.7C503.598 203.772 503.284 203.782 502.978 203.73C502.671 203.677 502.378 203.564 502.117 203.396C501.856 203.228 501.631 203.008 501.456 202.752C501.281 202.495 501.16 202.205 501.1 201.9L497.4 185.9C497.328 185.598 497.318 185.284 497.37 184.978C497.423 184.671 497.536 184.379 497.704 184.117C497.872 183.856 498.091 183.631 498.348 183.456C498.605 183.281 498.895 183.16 499.2 183.1L515.2 179.4C515.502 179.328 515.816 179.318 516.122 179.37C516.429 179.423 516.721 179.536 516.983 179.704C517.244 179.872 517.469 180.092 517.644 180.349C517.819 180.606 517.94 180.895 518 181.2L521.7 197.2C521.789 197.806 521.656 198.423 521.325 198.938C520.994 199.453 520.488 199.83 519.9 200Z" fill="black"/>
<path d="M523.9 177.3L540.2 173.5" stroke="#63737A" stroke-width="1.8" stroke-linecap="round" stroke-linejoin="round"/>
<path d="M525.7 185.2L542.1 181.5" stroke="#63737A" stroke-width="1.8" stroke-linecap="round" stroke-linejoin="round"/>
<path d="M527.5 193.2L537.4 190.9" stroke="#63737A" stroke-width="1.8" stroke-linecap="round" stroke-linejoin="round"/>
<path d="M518.6 130.3L497.4 135.2C497.056 135.272 496.7 135.258 496.364 135.158C496.027 135.058 495.721 134.876 495.473 134.627C495.224 134.379 495.042 134.073 494.942 133.736C494.842 133.4 494.828 133.044 494.9 132.7L495.1 131.7C495.194 131.312 495.393 130.957 495.675 130.675C495.957 130.393 496.312 130.194 496.7 130.1L517 125.4C517.38 125.306 517.78 125.322 518.151 125.446C518.523 125.57 518.852 125.797 519.1 126.1L519.7 126.9C519.935 127.172 520.096 127.499 520.167 127.851C520.238 128.203 520.217 128.568 520.107 128.91C519.996 129.251 519.8 129.559 519.536 129.802C519.272 130.046 518.949 130.217 518.6 130.3Z" fill="#6DAFA7"/>
<path d="M564.6 150.4C564.6 150.4 562.1 151.7 557.3 150.4C552.5 149.1 551.7 147.9 546.7 146.6C541.7 145.3 534.8 146.7 533.6 148.8C532.4 150.9 535.6 152.2 539.9 152.7C544.2 153.2 546.2 161.4 553.1 164.5C564.6 169.6 574.8 154 564.6 150.4Z" fill="#F4C2C9"/>
<path d="M533.6 148.8C532.4 150.9 535.6 152.2 539.9 152.7C544.2 153.2 546.2 161.4 553.1 164.5C555.224 165.483 557.606 165.764 559.9 165.3" stroke="#E26E85" stroke-width="1.8" stroke-linecap="round" stroke-linejoin="round"/>
<path d="M572.2 145.8C572.2 145.8 566.9 149.2 564.6 150.4C567.747 153.873 569.92 158.117 570.9 162.7C572.7 170.6 571.3 174.4 571.3 174.4C571.3 174.4 577.2 173.8 580.1 171.7C580.1 171.7 582.9 167.1 580.6 158.1C578.3 149.1 572.2 145.8 572.2 145.8Z" fill="white"/>
<path d="M635 133.6C634.084 130.54 632.454 127.742 630.244 125.436C628.034 123.131 625.308 121.383 622.29 120.338C619.272 119.293 616.049 118.98 612.886 119.426C609.723 119.871 606.712 121.062 604.1 122.9C597.975 127.252 591.634 131.29 585.1 135L569.8 143.3C569.8 143.3 578.5 151.9 579.8 161.4C581.1 170.9 579.5 174 579.5 174C579.5 174 603.4 168.1 624.5 157.8C628.818 155.647 632.239 152.04 634.16 147.613C636.08 143.187 636.378 138.224 635 133.6Z" fill="#6DAFA7"/>
<path d="M577.5 166.7C577.5 166.463 577.43 166.231 577.298 166.033C577.166 165.836 576.978 165.682 576.759 165.591C576.54 165.501 576.299 165.477 576.066 165.523C575.833 165.569 575.619 165.684 575.451 165.851C575.284 166.019 575.169 166.233 575.123 166.466C575.077 166.699 575.101 166.94 575.191 167.159C575.282 167.378 575.436 167.566 575.633 167.698C575.831 167.83 576.063 167.9 576.3 167.9C576.459 167.906 576.618 167.878 576.766 167.82C576.914 167.762 577.048 167.673 577.161 167.561C577.273 167.448 577.362 167.314 577.42 167.166C577.478 167.018 577.506 166.859 577.5 166.7Z" fill="#22272E"/>
<path d="M443.3 351.3L514 343L512.8 355.8L498.9 357.8L497.5 360.4L443.3 351.3Z" fill="#63737A"/>
<path d="M497.5 359L515.9 286.1C516.207 284.864 516.875 283.747 517.819 282.892C518.762 282.037 519.94 281.483 521.2 281.3L615.7 267.2C616.169 267.133 616.646 267.185 617.089 267.352C617.532 267.518 617.926 267.793 618.235 268.152C618.544 268.51 618.758 268.941 618.856 269.404C618.955 269.866 618.936 270.347 618.8 270.8L599.5 336.1C599.162 337.203 598.541 338.199 597.699 338.989C596.857 339.778 595.823 340.333 594.7 340.6L500.8 362.5C500.328 362.593 499.841 362.565 499.383 362.419C498.925 362.272 498.512 362.012 498.182 361.662C497.853 361.313 497.617 360.885 497.498 360.419C497.378 359.954 497.379 359.465 497.5 359Z" fill="#22272E"/>
<path d="M569.8 312.4C568.8 316 565.5 319.5 562.2 320.2C558.9 320.9 557.1 318.5 558.1 314.9C559.1 311.3 562.4 307.8 565.7 307.1C569 306.4 570.8 308.8 569.8 312.4Z" fill="#63737A"/>
<path d="M498.9 362.2C498.6 362 457.6 356.6 446.2 355C445.392 354.91 444.647 354.522 444.111 353.912C443.574 353.301 443.285 352.513 443.3 351.7V351.3L498.9 357.8V362.2Z" fill="#22272E"/>
<path d="M584.9 224.8H615.7C616.045 224.803 616.385 224.877 616.7 225.016C617.015 225.156 617.298 225.358 617.532 225.611C617.766 225.864 617.946 226.162 618.061 226.487C618.176 226.811 618.223 227.156 618.2 227.5L616.6 246.8C616.549 247.615 616.209 248.385 615.64 248.972C615.072 249.558 614.313 249.923 613.5 250L582.5 253.4C582.145 253.439 581.785 253.399 581.446 253.284C581.108 253.169 580.799 252.98 580.541 252.732C580.284 252.484 580.084 252.182 579.956 251.849C579.828 251.515 579.774 251.157 579.8 250.8L581.5 228.1C581.507 227.66 581.6 227.226 581.774 226.822C581.948 226.418 582.201 226.052 582.516 225.746C582.832 225.439 583.205 225.198 583.614 225.036C584.023 224.874 584.46 224.793 584.9 224.8Z" stroke="#6DAFA7" stroke-width="1.8" stroke-linecap="round" stroke-linejoin="round"/>
<path d="M582.9 225.5L600.9 235.2C601.484 235.497 602.139 235.627 602.792 235.574C603.446 235.521 604.071 235.288 604.6 234.9L617.4 225.5" stroke="#6DAFA7" stroke-width="1.8" stroke-linecap="round" stroke-linejoin="round"/>
<path d="M411.8 127.5L408.6 131C408.358 131.277 408.225 131.632 408.225 132C408.225 132.368 408.358 132.723 408.6 133C408.828 133.237 409.126 133.394 409.45 133.448C409.775 133.502 410.108 133.45 410.4 133.3L414.2 131L411.8 127.5Z" fill="#22272E"/>
<path d="M441 136L441.9 140.7C441.957 141.055 441.888 141.419 441.705 141.73C441.523 142.04 441.238 142.277 440.9 142.4C440.568 142.506 440.208 142.482 439.893 142.334C439.577 142.186 439.33 141.923 439.2 141.6L437.2 137.6L441 136Z" fill="#22272E"/>
<path d="M430.3 140.1C442.34 140.1 452.1 130.34 452.1 118.3C452.1 106.26 442.34 96.5 430.3 96.5C418.26 96.5 408.5 106.26 408.5 118.3C408.5 130.34 418.26 140.1 430.3 140.1Z" fill="#6DAFA7"/>
<path d="M437.019 130.565C443.794 126.84 446.267 118.328 442.542 111.552C438.817 104.777 430.305 102.304 423.529 106.029C416.754 109.754 414.281 118.266 418.006 125.041C421.731 131.817 430.243 134.29 437.019 130.565Z" fill="black"/>
<path d="M434.2 123.3L430.3 118.3L432.4 111.3" stroke="#63737A" stroke-width="1.8" stroke-linecap="round" stroke-linejoin="round"/>
<path d="M416.4 97.2C416.249 97.2521 416.089 97.2725 415.93 97.2599C415.771 97.2474 415.616 97.2021 415.476 97.127C415.335 97.0519 415.211 96.9486 415.112 96.8235C415.013 96.6984 414.941 96.5543 414.9 96.4C414.676 94.9633 414.953 93.4934 415.684 92.2366C416.416 90.9798 417.556 90.0125 418.916 89.4968C420.275 88.9811 421.771 88.9484 423.152 89.4041C424.532 89.8599 425.715 90.7764 426.5 92C426.589 92.1398 426.644 92.2984 426.661 92.4632C426.678 92.6279 426.657 92.7944 426.599 92.9495C426.541 93.1047 426.447 93.2441 426.326 93.357C426.205 93.4699 426.059 93.5531 425.9 93.6L416.4 97.2Z" fill="#6DAFA7"/>
<path d="M453.3 108C453.401 108.125 453.526 108.227 453.669 108.301C453.811 108.374 453.968 108.417 454.128 108.426C454.288 108.436 454.448 108.412 454.598 108.355C454.749 108.299 454.885 108.212 455 108.1C455.964 107.014 456.523 105.628 456.584 104.177C456.645 102.726 456.203 101.298 455.334 100.135C454.464 98.9718 453.22 98.1441 451.811 97.7916C450.402 97.4391 448.915 97.5833 447.6 98.2C447.459 98.2693 447.335 98.3684 447.236 98.4906C447.138 98.6127 447.067 98.7549 447.029 98.9072C446.991 99.0595 446.986 99.2183 447.016 99.3725C447.046 99.5267 447.108 99.6726 447.2 99.8L453.3 108Z" fill="#6DAFA7"/>
<path d="M440.2 94.9L434.5 93.3C434.277 93.2346 434.068 93.1257 433.887 92.9797C433.706 92.8336 433.555 92.6533 433.444 92.4489C433.332 92.2446 433.262 92.0202 433.237 91.7888C433.213 91.5573 433.234 91.3233 433.3 91.1C433.365 90.8766 433.474 90.6683 433.62 90.487C433.766 90.3058 433.947 90.1551 434.151 90.0436C434.355 89.9322 434.58 89.8621 434.811 89.8375C435.043 89.8128 435.277 89.8341 435.5 89.9L441.2 91.5C441.423 91.5654 441.632 91.6743 441.813 91.8203C441.994 91.9664 442.145 92.1467 442.256 92.3511C442.368 92.5554 442.438 92.7798 442.463 93.0112C442.487 93.2427 442.466 93.4768 442.4 93.7C442.259 94.1452 441.951 94.5187 441.541 94.7423C441.131 94.9659 440.651 95.0224 440.2 94.9Z" fill="#6DAFA7"/>
<path d="M435.535 92.4288L433.973 97.8064L438.102 99.0061L439.664 93.6284L435.535 92.4288Z" fill="#6DAFA7"/>
<path d="M197.6 263.7L198.5 272.9C198.546 273.357 198.444 273.817 198.21 274.213C197.976 274.608 197.623 274.919 197.2 275.1C195.842 275.719 194.708 276.743 193.956 278.033C193.204 279.322 192.87 280.813 193 282.3L194.1 292.5C194.243 293.998 194.865 295.41 195.874 296.527C196.882 297.644 198.224 298.406 199.7 298.7C200.143 298.806 200.543 299.045 200.847 299.385C201.15 299.724 201.343 300.148 201.4 300.6L202.3 309.8C202.345 310.184 202.283 310.572 202.122 310.923C201.961 311.274 201.707 311.575 201.388 311.791C201.068 312.008 200.695 312.132 200.309 312.152C199.923 312.171 199.54 312.084 199.2 311.9L197 310.8C194.618 309.598 192.58 307.812 191.076 305.608C189.572 303.405 188.651 300.856 188.4 298.2L186.3 277.9C186.029 275.244 186.427 272.563 187.457 270.1C188.488 267.637 190.118 265.471 192.2 263.8L194.2 262.2C194.503 261.976 194.861 261.836 195.236 261.794C195.611 261.753 195.99 261.811 196.335 261.963C196.68 262.116 196.979 262.357 197.201 262.661C197.423 262.966 197.561 263.325 197.6 263.7Z" fill="#22272E"/>
<path d="M244.3 69.4C246.1 81.6 239.3 92.7 227.9 94.3C214.8 96.1 201.1 84.8 199.3 69.2C197.6 53.9 208.3 43.4 221.4 45.2C232.9 46.8 242.6 57.4 244.3 69.4Z" fill="white"/>
<path d="M249 67.3C250.8 79.9 243.9 91.4 232.1 93C218.5 94.9 204.4 83.2 202.6 67.1C200.8 51.3 211.9 40.5 225.4 42.3C237.2 44 247.2 55 249 67.3Z" fill="black"/>
<path d="M232.6 60.3C233 63.4 231.1 65.8 228.3 65.8C225.5 65.8 222.6 63.1 222.2 59.9C221.8 56.7 223.9 54.3 226.8 54.5C228.267 54.702 229.628 55.3781 230.675 56.4252C231.722 57.4723 232.398 58.833 232.6 60.3Z" fill="#22272E"/>
<path d="M235.3 79.9L225 80.6C222.5 80.8 220.2 78.7 219.8 75.9C219 69.8 223 65 228.3 65.1C233.3 65.2 237.8 69.7 238.6 75.1C238.8 77.7 237.4 79.8 235.3 79.9Z" fill="#22272E"/>
<path d="M556.8 247.6C556.274 247.005 555.584 246.579 554.816 246.378C554.047 246.177 553.237 246.209 552.487 246.47C551.737 246.731 551.082 247.209 550.604 247.844C550.127 248.478 549.85 249.241 549.807 250.033C549.765 250.826 549.959 251.614 550.366 252.296C550.773 252.978 551.373 253.524 552.091 253.863C552.809 254.203 553.611 254.321 554.396 254.203C555.182 254.085 555.914 253.736 556.5 253.2C556.898 252.859 557.222 252.44 557.453 251.97C557.685 251.5 557.818 250.987 557.846 250.464C557.875 249.941 557.796 249.417 557.616 248.925C557.437 248.433 557.159 247.982 556.8 247.6Z" fill="#22272E"/>
<path d="M551.6 238.5L550.9 237.7C549.779 236.492 548.228 235.773 546.582 235.698C544.936 235.623 543.326 236.199 542.1 237.3C540.892 238.421 540.173 239.972 540.098 241.618C540.023 243.264 540.599 244.874 541.7 246.1L542.4 246.9C543.214 247.777 543.797 248.842 544.1 250C544.3 250.9 544.6 251.9 544.8 252.9C544.926 253.388 545.177 253.835 545.528 254.197C545.879 254.558 546.318 254.823 546.802 254.964C547.286 255.105 547.798 255.118 548.289 255.002C548.779 254.885 549.231 254.643 549.6 254.3L554 250.3L558.4 246.3C558.77 245.959 559.046 245.529 559.201 245.05C559.356 244.571 559.384 244.061 559.284 243.568C559.183 243.075 558.957 242.616 558.627 242.236C558.297 241.856 557.874 241.568 557.4 241.4C556.4 241.1 555.5 240.7 554.6 240.4C553.448 240.047 552.412 239.391 551.6 238.5Z" fill="#6DAFA7"/>
<path d="M472.2 254.2C473.641 262.538 473.641 271.062 472.2 279.4L504.6 272.4C504.6 272.4 497.4 260.4 495.5 249.4L472.2 254.2Z" fill="#22272E"/>
<path d="M472.9 259.4L496.7 254.4" stroke="#63737A" stroke-width="1.8" stroke-linecap="round" stroke-linejoin="round"/>
<path d="M478.5 264.1L493.9 260.4" stroke="#63737A" stroke-width="1.8" stroke-linecap="round" stroke-linejoin="round"/>
<path d="M478.8 268.9L489.1 266.5" stroke="#63737A" stroke-width="1.8" stroke-linecap="round" stroke-linejoin="round"/>
<path d="M548.8 364.2L570.6 359.3C570.6 359.3 570.9 369.3 586.3 375.2C586.3 375.2 569.2 388.2 563.9 391.6C564 391.5 551.2 384.9 548.8 364.2Z" fill="#6DAFA7"/>
<path d="M550.1 370.8L572 363.7" stroke="#22272E" stroke-width="1.8" stroke-linecap="round" stroke-linejoin="round"/>
<path d="M557.3 374.9L571 368.6" stroke="#22272E" stroke-width="1.8" stroke-linecap="round" stroke-linejoin="round"/>
<path d="M559.6 379.1L573.3 371.7" stroke="#22272E" stroke-width="1.8" stroke-linecap="round" stroke-linejoin="round"/>
<path d="M562.6 383.1L570.5 378.3" stroke="#22272E" stroke-width="1.8" stroke-linecap="round" stroke-linejoin="round"/>
<path d="M203 208.3C201.126 208.696 199.197 208.764 197.3 208.5L199.1 205.7C195.2 205.8 185.8 200.7 184.8 196C184.676 195.468 184.711 194.912 184.9 194.4V194.3C186.4 191.3 194.3 192 200.1 197.7C207 204.4 203 208.3 203 208.3Z" fill="#B8D8C7"/>
<path d="M199.2 205.7L197.4 208.5C194.585 208.121 191.869 207.205 189.4 205.8C186.509 204.309 184.216 201.874 182.9 198.9C184 196.4 184.8 194.7 185 194.3C184.815 194.813 184.78 195.368 184.9 195.9C185.9 200.7 195.3 205.8 199.2 205.7Z" fill="#6DAFA7"/>
<path d="M143.6 236C143.6 236 148.2 238.1 152.5 237.5C156.8 236.9 165.2 234.5 166.9 235.4C168.6 236.3 171.5 236.4 170.6 239.3C169.7 242.2 168 245.6 164.2 245.8C160.4 246 156.6 249 150.3 247.2C144 245.4 140.3 244.5 140.1 242C139.9 239.5 143.6 236 143.6 236Z" fill="#F4C2C9"/>
<path d="M203 208.3C201.4 213 180.5 240.5 170.6 254.9C160.7 269.3 143.9 310.1 135.5 308.4C127.1 306.7 116.7 298.5 118.5 293.8C120.3 289.1 141.6 275.7 157.8 252.6C174 229.5 173.6 213.5 178.5 200.4C180.6 194.8 182.1 195.2 182.1 195.2C182.093 196.499 182.33 197.788 182.8 199C184.05 202.018 186.362 204.473 189.3 205.9C191.769 207.305 194.485 208.221 197.3 208.6C199.202 208.868 201.137 208.766 203 208.3Z" fill="white"/>
<path d="M167 249.7C167 249.7 171 242.3 172 237.8" stroke="#B8D8C7" stroke-width="1.8" stroke-linecap="round" stroke-linejoin="round"/>
<path d="M170.8 250.7C170.8 250.7 173.5 245.6 174.9 244.3" stroke="#B8D8C7" stroke-width="1.8" stroke-linecap="round" stroke-linejoin="round"/>
<path d="M156.1 270.1C154.976 273.027 153.639 275.868 152.1 278.6" stroke="#B8D8C7" stroke-width="1.8" stroke-linecap="round" stroke-linejoin="round"/>
<path d="M150.5 268.7C147.6 272.922 144.096 276.695 140.1 279.9" stroke="#B8D8C7" stroke-width="1.8" stroke-linecap="round" stroke-linejoin="round"/>
<path d="M159 242.2C162.105 244.221 165.346 246.026 168.7 247.6C172.3 249 176.9 247.5 177.3 247.5C177.7 247.5 179.6 250.5 177.9 252.6C176.2 254.7 174.3 255 174.1 255.7C173.9 256.4 174.4 260.4 173.3 261.8C172.2 263.2 170.1 264 169.4 264.9C168.7 265.8 168 270.3 166.9 271C165.8 271.7 164.4 274 161.6 274.4C158.8 274.8 147.8 270.4 137.6 262.5C134.301 259.837 130.712 257.556 126.9 255.7C126.9 255.7 131.4 236 139.6 237.8C147.8 239.6 159 242.2 159 242.2Z" fill="#F4C2C9"/>
<path d="M159 242.2C162.105 244.221 165.346 246.026 168.7 247.6C172.3 249 176.9 247.5 177.3 247.5" stroke="#E26E85" stroke-width="1.8" stroke-linecap="round" stroke-linejoin="round"/>
<path d="M134.3 229.4C134.652 229.141 135.081 229.01 135.518 229.028C135.954 229.046 136.371 229.213 136.7 229.5C138 230.5 142.9 234.4 143.5 236C144.1 237.6 140.8 247.5 135.5 253.6C130.2 259.7 127.4 259.7 127.1 259.6C126.8 259.5 119.4 256.1 118.4 254.8C118.108 254.421 117.903 253.983 117.799 253.517C117.696 253.05 117.696 252.567 117.8 252.1C117.8 252.1 131.9 229.3 134.3 229.4Z" fill="#6DAFA7"/>
<path d="M69.6 194.8C66.3147 198.822 64.683 203.944 65.0358 209.126C65.3887 214.307 67.6997 219.16 71.5 222.7C73.8 224.8 76.4 227.2 79.3 229.8C94.9 243.8 119.1 252.5 119.1 252.5C132.3 246.4 134.3 229.4 134.3 229.4C122.4 221.9 110.6 207.9 101.9 195.7C100.059 193.183 97.6664 191.12 94.9054 189.67C92.1443 188.22 89.088 187.421 85.9706 187.334C82.8531 187.247 79.7571 187.875 76.9196 189.169C74.082 190.463 71.5783 192.389 69.6 194.8Z" fill="black"/>
<path d="M174.2 255.8C172.802 256.481 171.323 256.985 169.8 257.3C168.436 257.411 167.064 257.411 165.7 257.3" stroke="#E26E85" stroke-width="1.8" stroke-linecap="round" stroke-linejoin="round"/>
<path d="M170 264.6C169.149 265.255 168.155 265.7 167.1 265.9C166.03 266.003 164.954 265.795 164 265.3" stroke="#E26E85" stroke-width="1.8" stroke-linecap="round" stroke-linejoin="round"/>
<path d="M166.1 271.9C166.1 271.9 163.7 272.7 162.4 271.5" stroke="#E26E85" stroke-width="1.8" stroke-linecap="round" stroke-linejoin="round"/>
<path d="M434.6 371C415.5 371.4 385.5 378.6 367.3 386C356.883 390.214 346.702 394.988 336.8 400.3C336.8 400.3 341.1 397.9 346.2 407.7C351.3 417.5 349.5 428.9 349.5 428.9C352.1 428.2 414.1 426.3 433.9 423.7C453.7 421.1 476.6 413.9 475.2 394.6C473.8 375.3 456.8 370 433.5 365.7C410.2 361.4 397.2 363.2 395.8 362.8C392.627 361.872 389.761 360.111 387.5 357.7C385.1 354.8 382.6 346.9 382.6 346.9C382.6 346.9 322.2 343.1 316.1 353.3C310 363.5 337.4 392.7 337.4 392.7L434.6 371Z" fill="#22272E"/>
<path d="M290.6 345.7C290.6 345.7 287.3 352.9 286.1 355.5C284.9 358.1 257.2 359.1 244.8 359.3C232.4 359.5 208.1 364.5 206.2 382.4C204 402.8 221.1 412.3 251.6 414.5C285.9 417 317.7 416.2 324.4 416.9C331.1 417.6 349.6 409.3 351.7 401.6C353.8 393.9 382.9 388 382.9 388C382.9 388 389.3 356 378.8 349.6C368.3 343.2 290.6 345.7 290.6 345.7Z" fill="#22272E"/>
<path d="M351.7 394.4C351.7 394.4 294.9 361.7 249.8 363.6" stroke="#63737A" stroke-width="1.8" stroke-linecap="round" stroke-linejoin="round"/>
<path d="M336.8 400.4C336.8 400.4 334 401.6 335.6 411.2C337.2 420.8 346 431 349.5 429C353 427 351.2 409.6 347.2 403.8C343.2 398 336.8 400.4 336.8 400.4Z" fill="#22272E"/>
<path d="M330.3 403.6C330.3 403.6 324.8 410.3 322.3 412.2C319.8 414.1 308.6 414.9 304.5 421.3C300.4 427.7 309.8 442.4 317.4 440C315.3 441.3 313.5 442.5 312.1 443.4C305.3 448 292.9 454.9 284.1 444.8C276.7 436.2 279.3 425.8 284.7 418.9C290.1 412 304 411.2 307.2 410.3C310.4 409.4 317.7 404.1 320.9 402.2C323.6 400.6 325.6 402.7 330.3 403.6Z" fill="#6DAFA7"/>
<path d="M349.7 425.7C349.3 425.8 342.1 427 339.1 427.6C336.7 428.1 325.3 434.8 317.3 439.9C309.7 442.3 300.3 427.6 304.4 421.2C308.5 414.8 319.7 414 322.2 412.1C324.7 410.2 330.2 403.5 330.2 403.5L332.5 403.8C338.9 404.3 342.2 402.1 342.2 402.1C343.78 403.695 345.067 405.557 346 407.6C349.6 414.3 349.9 421.6 349.7 425.7Z" fill="#F4C2C9"/>
<path d="M434.6 371C415.5 371.4 385.5 378.6 367.3 386C356.883 390.214 346.702 394.988 336.8 400.3" stroke="#63737A" stroke-width="1.8" stroke-linecap="round" stroke-linejoin="round"/>
<path d="M210.3 372.4C211.165 372.022 212.096 371.818 213.04 371.801C213.984 371.784 214.922 371.953 215.8 372.3C221.2 374.1 223 386 220.3 393.4C217.6 400.8 211.6 400.5 209.6 398.4" stroke="#63737A" stroke-width="1.8" stroke-linecap="round" stroke-linejoin="round"/>
<path d="M471.7 383.1C471.7 383.1 466.7 377.4 460.8 384.5C454.3 392.2 457.7 405.2 462.9 408.3C468.1 411.4 471.1 408.3 471.1 408.3" stroke="#63737A" stroke-width="1.8" stroke-linecap="round" stroke-linejoin="round"/>
<path d="M253.4 242C253.4 242.218 253.335 242.43 253.215 242.611C253.094 242.792 252.922 242.933 252.721 243.016C252.52 243.1 252.299 243.121 252.085 243.079C251.872 243.036 251.676 242.932 251.522 242.778C251.368 242.624 251.264 242.428 251.221 242.215C251.179 242.001 251.2 241.78 251.284 241.579C251.367 241.378 251.508 241.206 251.689 241.085C251.87 240.965 252.082 240.9 252.3 240.9C252.591 240.903 252.869 241.019 253.075 241.225C253.281 241.431 253.397 241.709 253.4 242Z" stroke="#22272E" stroke-width="1.8" stroke-linecap="round" stroke-linejoin="round"/>
<path d="M275.2 223.3C273.1 230.3 270.9 233.3 271.1 239.7C267.511 240.808 263.702 241.004 260.018 240.27C256.335 239.537 252.891 237.898 250 235.5C250.6 232.8 250.9 230.7 250.5 229.4C249.3 224.6 242.8 222.4 238.3 216.4C233.8 210.4 233.4 199.8 235.6 198.5C236.6 197.9 237.6 198.1 239.1 203.1C239.717 205.151 240.556 207.13 241.6 209C239.5 204.2 238.6 188.4 244.4 190.8C246.3 191.6 244.1 195 246.4 201.1C247.454 204.36 249.565 207.176 252.4 209.1C252.052 206.165 252.722 203.199 254.3 200.7C256.5 197.6 262.1 194.1 263.1 197.4C264.1 200.7 259.1 201.8 258.7 205.9C258.1 210.8 263.6 214.6 267.3 211.4C271 208.2 268.9 204.6 267.3 202.3C265.7 200 263.2 197.2 265 195.9C266.8 194.6 271.3 196.1 274.5 201.6C277.7 207.1 277.3 216.3 275.2 223.3Z" fill="#F4C2C9"/>
<path d="M295.5 295C295.5 295 273 323.4 258.2 329.8C243.4 336.2 233.4 331.7 230.5 316.2C227.6 300.7 236.8 273 240.8 262.8C243.7 255.2 248.3 243.2 250 235.6C252.908 237.967 256.351 239.587 260.029 240.319C263.706 241.051 267.507 240.873 271.1 239.8C271.2 245.9 268.4 268.4 268.1 270.5C268.2 269.8 269.4 266.5 277.8 254.7C287.5 241.2 297.2 235.3 297.2 235.3C297.2 235.3 305.4 239.2 307.8 257.5C310.2 275.8 295.5 295 295.5 295Z" fill="#6DAFA7"/>
<path d="M268.1 270.5C268.1 270.5 267.2 296.1 263.9 304.4" stroke="#22272E" stroke-width="1.8" stroke-linecap="round" stroke-linejoin="round"/>
<path d="M252.3 209.2C252.527 210.761 253.071 212.258 253.9 213.6" stroke="#E26E85" stroke-width="1.8" stroke-linecap="round" stroke-linejoin="round"/>
<path d="M247.7 243.5C247.7 243.5 253.4 251.7 270.5 249.3" stroke="#22272E" stroke-width="1.8" stroke-linecap="round" stroke-linejoin="round"/>
<path d="M233.4 324.9C233.4 324.9 230.8 316 240.4 313.9C250 311.8 261.7 325.7 254.3 331.2" stroke="#22272E" stroke-width="1.8" stroke-linecap="round" stroke-linejoin="round"/>
<path d="M241.5 209.2C242.383 211.018 243.566 212.675 245 214.1C246 215.1 247.4 216.1 248 217.4" stroke="#E26E85" stroke-width="1.8" stroke-linecap="round" stroke-linejoin="round"/>
<path d="M360.9 148.7C372.3 151.6 377.7 158.1 377.2 174.5C376.7 190.9 374.5 196.8 382.3 205.9C390.1 215 392.2 227.8 377.4 235.9C362.6 244 330.2 246.1 314.1 235.9C298 225.7 296.1 214.8 300.9 204.1C305.7 193.4 318.5 186.4 315.7 178.7C312.9 171 316.3 179.4 316.3 179.4C313.649 177.186 311.567 174.369 310.227 171.185C308.888 168.001 308.33 164.543 308.6 161.1C309.2 148.9 324.2 144.3 332 143.9C336 143.7 340.3 146.2 346.2 147.2C352.1 148 358 148 360.9 148.7Z" fill="#22272E"/>
<path d="M337 226.5C337 226.5 315.4 227.7 302.8 232.2C290.2 236.7 292.5 246.7 290.9 257.2C289.3 267.7 279 278.4 284.2 292.7C289.4 307 294.5 315.1 291.8 326.1C289.1 337.1 286.6 342.6 287 345.7C287.4 348.8 301.8 358.3 307.3 360.2C312.8 362.1 323.5 354.5 323.5 354.5C323.5 354.5 329 361.7 337 363.3C345 364.9 377.4 356.6 384.8 348.3C381.746 341.882 380.044 334.904 379.8 327.8C379.6 316.6 386.1 302.7 388.5 295C390.9 287.3 404.4 257.6 399.1 247.7C395.3 240.6 366.9 224.6 337 226.5Z" fill="black"/>
<mask id="mask2_2_265" style="mask-type:luminance" maskUnits="userSpaceOnUse" x="282" y="226" width="119" height="138">
<path d="M337 226.5C337 226.5 315.4 227.7 302.8 232.2C290.2 236.7 292.5 246.7 290.9 257.2C289.3 267.7 279 278.4 284.2 292.7C289.4 307 294.5 315.1 291.8 326.1C289.1 337.1 286.6 342.6 287 345.7C287.4 348.8 301.8 358.3 307.3 360.2C312.8 362.1 323.5 354.5 323.5 354.5C323.5 354.5 329 361.7 337 363.3C345 364.9 377.4 356.6 384.8 348.3C381.746 341.882 380.044 334.904 379.8 327.8C379.6 316.6 386.1 302.7 388.5 295C390.9 287.3 404.4 257.6 399.1 247.7C395.3 240.6 366.9 224.6 337 226.5Z" fill="white"/>
</mask>
<g mask="url(#mask2_2_265)">
<path d="M282.6 357.6L283.6 358.8C283.929 359.212 284.082 359.737 284.026 360.262C283.97 360.786 283.709 361.267 283.3 361.6L282.1 362.6C281.688 362.929 281.163 363.082 280.638 363.026C280.114 362.97 279.633 362.709 279.3 362.3L278.3 361.1C277.971 360.688 277.818 360.163 277.874 359.638C277.93 359.114 278.191 358.633 278.6 358.3L279.8 357.3C280.001 357.129 280.234 357.001 280.486 356.923C280.738 356.846 281.002 356.82 281.265 356.848C281.527 356.876 281.78 356.957 282.01 357.087C282.239 357.216 282.44 357.391 282.6 357.6Z" fill="white"/>
<path d="M284.7 339.5L285.7 340.7C286.029 341.112 286.183 341.637 286.126 342.162C286.07 342.686 285.809 343.167 285.4 343.5L284.2 344.5C283.788 344.829 283.263 344.982 282.738 344.926C282.214 344.87 281.733 344.609 281.4 344.2L280.4 343C280.071 342.588 279.918 342.063 279.974 341.538C280.03 341.014 280.291 340.533 280.7 340.2L281.9 339.2C282.312 338.871 282.837 338.718 283.362 338.774C283.886 338.83 284.367 339.091 284.7 339.5Z" fill="white"/>
<path d="M286.9 321.5L287.9 322.7C288.229 323.112 288.383 323.637 288.326 324.162C288.27 324.686 288.009 325.167 287.6 325.5L286.4 326.5C285.988 326.829 285.463 326.982 284.938 326.926C284.414 326.87 283.933 326.609 283.6 326.2L282.6 325C282.271 324.588 282.117 324.063 282.174 323.538C282.23 323.014 282.491 322.533 282.9 322.2L284.1 321.2C284.296 321.019 284.528 320.882 284.781 320.798C285.035 320.714 285.303 320.686 285.568 320.714C285.833 320.743 286.089 320.827 286.319 320.963C286.549 321.099 286.747 321.282 286.9 321.5Z" fill="white"/>
<path d="M289 303.4L290 304.6C290.329 305.012 290.482 305.537 290.426 306.062C290.37 306.586 290.109 307.067 289.7 307.4L288.5 308.4C288.088 308.729 287.563 308.883 287.038 308.826C286.514 308.77 286.033 308.509 285.7 308.1L284.7 306.9C284.371 306.488 284.218 305.963 284.274 305.438C284.33 304.914 284.591 304.433 285 304.1L286.2 303.1C286.612 302.771 287.137 302.617 287.662 302.674C288.186 302.73 288.667 302.991 289 303.4Z" fill="white"/>
<path d="M291.1 285.3L292.1 286.5C292.429 286.912 292.582 287.437 292.526 287.962C292.47 288.486 292.209 288.967 291.8 289.3L290.6 290.3C290.188 290.629 289.663 290.783 289.138 290.726C288.614 290.67 288.133 290.409 287.8 290L286.8 288.8C286.471 288.388 286.318 287.863 286.374 287.338C286.43 286.814 286.691 286.333 287.1 286L288.3 285C288.712 284.671 289.237 284.518 289.762 284.574C290.286 284.63 290.767 284.891 291.1 285.3Z" fill="white"/>
<path d="M298.9 359.5L299.9 360.7C300.229 361.112 300.383 361.637 300.326 362.162C300.27 362.686 300.009 363.167 299.6 363.5L298.4 364.5C297.988 364.829 297.463 364.982 296.938 364.926C296.414 364.87 295.933 364.609 295.6 364.2L294.6 363C294.271 362.588 294.117 362.063 294.174 361.538C294.23 361.014 294.491 360.533 294.9 360.2L296.1 359.2C296.301 359.029 296.534 358.901 296.786 358.823C297.038 358.746 297.302 358.72 297.564 358.748C297.826 358.776 298.08 358.857 298.31 358.987C298.539 359.116 298.74 359.291 298.9 359.5Z" fill="white"/>
<path d="M301 341.4L302 342.6C302.329 343.012 302.482 343.537 302.426 344.062C302.37 344.586 302.109 345.067 301.7 345.4L300.5 346.4C300.088 346.729 299.563 346.883 299.038 346.826C298.514 346.77 298.033 346.509 297.7 346.1L296.7 344.9C296.371 344.488 296.218 343.963 296.274 343.438C296.33 342.914 296.591 342.433 297 342.1L298.2 341.1C298.612 340.771 299.137 340.617 299.662 340.674C300.186 340.73 300.667 340.991 301 341.4Z" fill="white"/>
<path d="M303.1 323.4L304.1 324.6C304.429 325.012 304.582 325.537 304.526 326.062C304.47 326.586 304.209 327.067 303.8 327.4L302.6 328.4C302.188 328.729 301.663 328.883 301.138 328.826C300.614 328.77 300.133 328.509 299.8 328.1L298.8 326.9C298.471 326.488 298.318 325.963 298.374 325.438C298.43 324.914 298.691 324.433 299.1 324.1L300.3 323.1C300.5 322.928 300.733 322.798 300.985 322.72C301.237 322.641 301.503 322.615 301.765 322.643C302.027 322.672 302.281 322.753 302.511 322.883C302.741 323.013 302.941 323.189 303.1 323.4Z" fill="white"/>
<path d="M305.3 305.3L306.3 306.5C306.629 306.912 306.783 307.437 306.726 307.962C306.67 308.486 306.409 308.967 306 309.3L304.8 310.3C304.388 310.629 303.863 310.783 303.338 310.726C302.814 310.67 302.333 310.409 302 310L301 308.8C300.671 308.388 300.518 307.863 300.574 307.338C300.63 306.814 300.891 306.333 301.3 306L302.5 305C302.912 304.671 303.437 304.518 303.962 304.574C304.486 304.63 304.967 304.891 305.3 305.3Z" fill="white"/>
<path d="M307.4 287.2L308.4 288.4C308.729 288.812 308.883 289.337 308.826 289.862C308.77 290.386 308.509 290.867 308.1 291.2L306.9 292.2C306.488 292.529 305.963 292.683 305.438 292.626C304.914 292.57 304.433 292.309 304.1 291.9L303.1 290.7C302.771 290.288 302.617 289.763 302.674 289.238C302.73 288.714 302.991 288.233 303.4 287.9L304.6 286.9C305.012 286.571 305.537 286.418 306.062 286.474C306.586 286.53 307.067 286.791 307.4 287.2Z" fill="white"/>
<path d="M315.2 361.4L316.2 362.6C316.529 363.012 316.683 363.537 316.626 364.062C316.57 364.586 316.309 365.067 315.9 365.4L314.7 366.4C314.288 366.729 313.763 366.883 313.238 366.826C312.714 366.77 312.233 366.509 311.9 366.1L310.9 364.9C310.571 364.488 310.418 363.963 310.474 363.438C310.53 362.914 310.791 362.433 311.2 362.1L312.4 361.1C312.812 360.771 313.337 360.617 313.862 360.674C314.386 360.73 314.867 360.991 315.2 361.4Z" fill="white"/>
<path d="M317.3 343.3L318.3 344.5C318.629 344.912 318.783 345.437 318.726 345.962C318.67 346.486 318.409 346.967 318 347.3L316.8 348.3C316.388 348.629 315.863 348.783 315.338 348.726C314.814 348.67 314.333 348.409 314 348L313 346.8C312.671 346.388 312.518 345.863 312.574 345.338C312.63 344.814 312.891 344.333 313.3 344L314.5 343C314.912 342.671 315.437 342.518 315.962 342.574C316.486 342.63 316.967 342.891 317.3 343.3Z" fill="white"/>
<path d="M319.4 325.3L320.4 326.5C320.729 326.912 320.883 327.437 320.826 327.962C320.77 328.486 320.509 328.967 320.1 329.3L318.9 330.3C318.488 330.629 317.963 330.782 317.438 330.726C316.914 330.67 316.433 330.409 316.1 330L315.1 328.8C314.771 328.388 314.617 327.863 314.674 327.338C314.73 326.814 314.991 326.333 315.4 326L316.6 325C316.801 324.829 317.034 324.701 317.286 324.623C317.538 324.546 317.802 324.52 318.064 324.548C318.326 324.576 318.58 324.657 318.81 324.787C319.039 324.916 319.24 325.091 319.4 325.3Z" fill="white"/>
<path d="M321.5 307.2L322.5 308.4C322.829 308.812 322.982 309.337 322.926 309.862C322.87 310.386 322.609 310.867 322.2 311.2L321 312.2C320.588 312.529 320.063 312.682 319.538 312.626C319.014 312.57 318.533 312.309 318.2 311.9L317.2 310.7C316.871 310.288 316.718 309.763 316.774 309.238C316.83 308.714 317.091 308.233 317.5 307.9L318.7 306.9C318.901 306.729 319.134 306.601 319.386 306.523C319.638 306.446 319.902 306.42 320.164 306.448C320.427 306.476 320.68 306.557 320.91 306.687C321.139 306.816 321.34 306.991 321.5 307.2Z" fill="white"/>
<path d="M323.6 289.1L324.6 290.3C324.929 290.712 325.082 291.237 325.026 291.762C324.97 292.286 324.709 292.767 324.3 293.1L323.1 294.1C322.688 294.429 322.163 294.582 321.638 294.526C321.114 294.47 320.633 294.209 320.3 293.8L319.3 292.6C318.971 292.188 318.818 291.663 318.874 291.138C318.93 290.614 319.191 290.133 319.6 289.8L320.8 288.8C321.212 288.471 321.737 288.318 322.262 288.374C322.786 288.43 323.267 288.691 323.6 289.1Z" fill="white"/>
<path d="M331.4 363.3L332.4 364.5C332.729 364.912 332.883 365.437 332.826 365.962C332.77 366.486 332.509 366.967 332.1 367.3L330.9 368.3C330.488 368.629 329.963 368.783 329.438 368.726C328.914 368.67 328.433 368.409 328.1 368L327.1 366.8C326.771 366.388 326.617 365.863 326.674 365.338C326.73 364.814 326.991 364.333 327.4 364L328.6 363C329.012 362.671 329.537 362.518 330.062 362.574C330.586 362.63 331.067 362.891 331.4 363.3Z" fill="white"/>
<path d="M333.6 345.3L334.6 346.5C334.929 346.912 335.082 347.437 335.026 347.962C334.97 348.486 334.709 348.967 334.3 349.3L333.1 350.3C332.688 350.629 332.163 350.782 331.638 350.726C331.114 350.67 330.633 350.409 330.3 350L329.3 348.8C328.971 348.388 328.818 347.863 328.874 347.338C328.93 346.814 329.191 346.333 329.6 346L330.8 345C330.996 344.819 331.228 344.682 331.482 344.598C331.735 344.514 332.003 344.486 332.268 344.514C332.533 344.543 332.789 344.627 333.019 344.763C333.249 344.899 333.447 345.082 333.6 345.3Z" fill="white"/>
<path d="M335.7 327.2L336.7 328.4C337.029 328.812 337.183 329.337 337.126 329.862C337.07 330.386 336.809 330.867 336.4 331.2L335.2 332.2C334.788 332.529 334.263 332.683 333.738 332.626C333.214 332.57 332.733 332.309 332.4 331.9L331.4 330.7C331.071 330.288 330.918 329.763 330.974 329.238C331.03 328.714 331.291 328.233 331.7 327.9L332.9 326.9C333.312 326.571 333.837 326.418 334.362 326.474C334.886 326.53 335.367 326.791 335.7 327.2Z" fill="white"/>
<path d="M337.8 309.1L338.8 310.3C339.129 310.712 339.283 311.237 339.226 311.762C339.17 312.286 338.909 312.767 338.5 313.1L337.3 314.1C336.888 314.429 336.363 314.582 335.838 314.526C335.314 314.47 334.833 314.209 334.5 313.8L333.5 312.6C333.171 312.188 333.018 311.663 333.074 311.138C333.13 310.614 333.391 310.133 333.8 309.8L335 308.8C335.412 308.471 335.937 308.318 336.462 308.374C336.986 308.43 337.467 308.691 337.8 309.1Z" fill="white"/>
<path d="M339.9 291.1L340.9 292.3C341.229 292.712 341.383 293.237 341.326 293.762C341.27 294.286 341.009 294.767 340.6 295.1L339.4 296.1C338.988 296.429 338.463 296.582 337.938 296.526C337.414 296.47 336.933 296.209 336.6 295.8L335.6 294.6C335.271 294.188 335.117 293.663 335.174 293.138C335.23 292.614 335.491 292.133 335.9 291.8L337.1 290.8C337.296 290.619 337.528 290.482 337.781 290.398C338.035 290.314 338.303 290.286 338.568 290.314C338.833 290.343 339.089 290.427 339.319 290.563C339.549 290.699 339.747 290.882 339.9 291.1Z" fill="white"/>
<path d="M349.8 347.2L350.8 348.4C351.129 348.812 351.283 349.337 351.226 349.862C351.17 350.386 350.909 350.867 350.5 351.2L349.3 352.2C348.888 352.529 348.363 352.682 347.838 352.626C347.314 352.57 346.833 352.309 346.5 351.9L345.5 350.7C345.171 350.288 345.018 349.763 345.074 349.238C345.13 348.714 345.391 348.233 345.8 347.9L347 346.9C347.196 346.719 347.428 346.582 347.681 346.498C347.935 346.414 348.203 346.386 348.468 346.414C348.733 346.443 348.989 346.527 349.219 346.663C349.449 346.799 349.647 346.982 349.8 347.2Z" fill="white"/>
<path d="M351.9 329.1L352.9 330.3C353.229 330.712 353.383 331.237 353.326 331.762C353.27 332.286 353.009 332.767 352.6 333.1L351.4 334.1C350.988 334.429 350.463 334.582 349.938 334.526C349.414 334.47 348.933 334.209 348.6 333.8L347.6 332.6C347.271 332.188 347.117 331.663 347.174 331.138C347.23 330.614 347.491 330.133 347.9 329.8L349.1 328.8C349.3 328.628 349.533 328.498 349.785 328.42C350.037 328.341 350.303 328.315 350.565 328.343C350.827 328.372 351.081 328.453 351.311 328.583C351.541 328.713 351.741 328.889 351.9 329.1Z" fill="white"/>
<path d="M354.1 311L355.1 312.2C355.429 312.612 355.582 313.137 355.526 313.662C355.47 314.186 355.209 314.667 354.8 315L353.6 316C353.188 316.329 352.663 316.482 352.138 316.426C351.614 316.37 351.133 316.109 350.8 315.7L349.8 314.5C349.471 314.088 349.318 313.563 349.374 313.038C349.43 312.514 349.691 312.033 350.1 311.7L351.3 310.7C351.712 310.371 352.237 310.218 352.762 310.274C353.286 310.33 353.767 310.591 354.1 311Z" fill="white"/>
<path d="M356.2 293L357.2 294.2C357.529 294.612 357.683 295.137 357.626 295.662C357.57 296.186 357.309 296.667 356.9 297L355.7 298C355.288 298.329 354.763 298.482 354.238 298.426C353.714 298.37 353.233 298.109 352.9 297.7L351.9 296.5C351.571 296.088 351.418 295.563 351.474 295.038C351.53 294.514 351.791 294.033 352.2 293.7L353.4 292.7C353.812 292.371 354.337 292.218 354.862 292.274C355.386 292.33 355.867 292.591 356.2 293Z" fill="white"/>
<path d="M366.1 349.1L367.1 350.3C367.429 350.712 367.582 351.237 367.526 351.762C367.47 352.286 367.209 352.767 366.8 353.1L365.6 354.1C365.188 354.429 364.663 354.582 364.138 354.526C363.614 354.47 363.133 354.209 362.8 353.8L361.8 352.6C361.471 352.188 361.317 351.663 361.374 351.138C361.43 350.614 361.691 350.133 362.1 349.8L363.3 348.8C363.712 348.471 364.237 348.318 364.762 348.374C365.286 348.43 365.767 348.691 366.1 349.1Z" fill="white"/>
<path d="M368.2 331L369.2 332.2C369.529 332.612 369.683 333.137 369.626 333.662C369.57 334.186 369.309 334.667 368.9 335L367.7 336C367.288 336.329 366.763 336.482 366.238 336.426C365.714 336.37 365.233 336.109 364.9 335.7L363.9 334.5C363.571 334.088 363.417 333.563 363.474 333.038C363.53 332.514 363.791 332.033 364.2 331.7L365.4 330.7C365.601 330.529 365.834 330.401 366.086 330.323C366.337 330.246 366.602 330.22 366.864 330.248C367.126 330.276 367.38 330.357 367.61 330.487C367.839 330.616 368.04 330.791 368.2 331Z" fill="white"/>
<path d="M370.3 312.9L371.3 314.1C371.629 314.512 371.782 315.037 371.726 315.562C371.67 316.086 371.409 316.567 371 316.9L369.8 317.9C369.388 318.229 368.863 318.383 368.338 318.326C367.814 318.27 367.333 318.009 367 317.6L366 316.4C365.671 315.988 365.517 315.463 365.574 314.938C365.63 314.414 365.891 313.933 366.3 313.6L367.5 312.6C367.912 312.271 368.437 312.117 368.962 312.174C369.486 312.23 369.967 312.491 370.3 312.9Z" fill="white"/>
<path d="M372.4 294.9L373.4 296.1C373.729 296.512 373.882 297.037 373.826 297.562C373.77 298.086 373.509 298.567 373.1 298.9L371.9 299.9C371.488 300.229 370.963 300.383 370.438 300.326C369.914 300.27 369.433 300.009 369.1 299.6L368.1 298.4C367.771 297.988 367.617 297.463 367.674 296.938C367.73 296.414 367.991 295.933 368.4 295.6L369.6 294.6C369.8 294.428 370.033 294.298 370.285 294.22C370.537 294.141 370.803 294.115 371.065 294.143C371.327 294.172 371.581 294.253 371.811 294.383C372.041 294.513 372.241 294.689 372.4 294.9Z" fill="white"/>
<path d="M382.4 351L383.4 352.2C383.729 352.612 383.882 353.137 383.826 353.662C383.77 354.186 383.509 354.667 383.1 355L381.9 356C381.488 356.329 380.963 356.482 380.438 356.426C379.914 356.37 379.433 356.109 379.1 355.7L378.1 354.5C377.771 354.088 377.617 353.563 377.674 353.038C377.73 352.514 377.991 352.033 378.4 351.7L379.6 350.7C380.012 350.371 380.537 350.218 381.062 350.274C381.586 350.33 382.067 350.591 382.4 351Z" fill="white"/>
<path d="M384.5 332.9L385.5 334.1C385.829 334.512 385.982 335.037 385.926 335.562C385.87 336.086 385.609 336.567 385.2 336.9L384 337.9C383.588 338.229 383.063 338.383 382.538 338.326C382.014 338.27 381.533 338.009 381.2 337.6L380.2 336.4C379.871 335.988 379.717 335.463 379.774 334.938C379.83 334.414 380.091 333.933 380.5 333.6L381.7 332.6C382.112 332.271 382.637 332.117 383.162 332.174C383.686 332.23 384.167 332.491 384.5 332.9Z" fill="white"/>
<path d="M386.6 314.8L387.6 316C387.929 316.412 388.082 316.937 388.026 317.462C387.97 317.986 387.709 318.467 387.3 318.8L386.1 319.8C385.688 320.129 385.163 320.283 384.638 320.226C384.114 320.17 383.633 319.909 383.3 319.5L382.3 318.3C381.971 317.888 381.817 317.363 381.874 316.838C381.93 316.314 382.191 315.833 382.6 315.5L383.8 314.5C384.212 314.171 384.737 314.018 385.262 314.074C385.786 314.13 386.267 314.391 386.6 314.8Z" fill="white"/>
<path d="M388.7 296.8L389.7 298C390.029 298.412 390.183 298.937 390.126 299.462C390.07 299.986 389.809 300.467 389.4 300.8L388.2 301.8C387.788 302.129 387.263 302.282 386.738 302.226C386.214 302.17 385.733 301.909 385.4 301.5L384.4 300.3C384.071 299.888 383.917 299.363 383.974 298.838C384.03 298.314 384.291 297.833 384.7 297.5L385.9 296.5C386.101 296.329 386.334 296.201 386.586 296.123C386.837 296.046 387.102 296.02 387.364 296.048C387.626 296.076 387.88 296.157 388.11 296.287C388.339 296.416 388.54 296.591 388.7 296.8Z" fill="white"/>
<path d="M293.2 267.3L294.2 268.5C294.529 268.912 294.683 269.437 294.626 269.962C294.57 270.486 294.309 270.967 293.9 271.3L292.7 272.3C292.288 272.629 291.763 272.782 291.238 272.726C290.714 272.67 290.233 272.409 289.9 272L288.9 270.8C288.571 270.388 288.418 269.863 288.474 269.338C288.53 268.814 288.791 268.333 289.2 268L290.4 267C290.596 266.819 290.828 266.682 291.081 266.598C291.335 266.514 291.603 266.486 291.868 266.514C292.133 266.543 292.389 266.627 292.619 266.763C292.849 266.899 293.047 267.082 293.2 267.3Z" fill="white"/>
<path d="M295.3 249.2L296.3 250.4C296.629 250.812 296.783 251.337 296.726 251.862C296.67 252.386 296.409 252.867 296 253.2L294.8 254.2C294.388 254.529 293.863 254.682 293.338 254.626C292.814 254.57 292.333 254.309 292 253.9L291 252.7C290.671 252.288 290.518 251.763 290.574 251.238C290.63 250.714 290.891 250.233 291.3 249.9L292.5 248.9C292.7 248.728 292.933 248.598 293.185 248.52C293.437 248.441 293.703 248.415 293.965 248.443C294.227 248.472 294.481 248.553 294.711 248.683C294.941 248.813 295.141 248.989 295.3 249.2Z" fill="white"/>
<path d="M297.5 231.1L298.5 232.3C298.829 232.712 298.982 233.237 298.926 233.762C298.87 234.286 298.609 234.767 298.2 235.1L297 236.1C296.588 236.429 296.063 236.582 295.538 236.526C295.014 236.47 294.533 236.209 294.2 235.8L293.2 234.6C292.871 234.188 292.718 233.663 292.774 233.138C292.83 232.614 293.091 232.133 293.5 231.8L294.7 230.8C295.112 230.471 295.637 230.318 296.162 230.374C296.686 230.43 297.167 230.691 297.5 231.1Z" fill="white"/>
<path d="M309.5 269.2L310.5 270.4C310.829 270.812 310.982 271.337 310.926 271.862C310.87 272.386 310.609 272.867 310.2 273.2L309 274.2C308.588 274.529 308.063 274.682 307.538 274.626C307.014 274.57 306.533 274.309 306.2 273.9L305.2 272.7C304.871 272.288 304.718 271.763 304.774 271.238C304.83 270.714 305.091 270.233 305.5 269.9L306.7 268.9C306.901 268.729 307.134 268.601 307.386 268.523C307.638 268.446 307.902 268.42 308.164 268.448C308.427 268.476 308.68 268.557 308.91 268.687C309.139 268.816 309.34 268.991 309.5 269.2Z" fill="white"/>
<path d="M311.6 251.1L312.6 252.3C312.929 252.712 313.082 253.237 313.026 253.762C312.97 254.286 312.709 254.767 312.3 255.1L311.1 256.1C310.688 256.429 310.163 256.582 309.638 256.526C309.114 256.47 308.633 256.209 308.3 255.8L307.3 254.6C306.971 254.188 306.818 253.663 306.874 253.138C306.93 252.614 307.191 252.133 307.6 251.8L308.8 250.8C309.001 250.629 309.234 250.501 309.486 250.423C309.738 250.346 310.002 250.32 310.265 250.348C310.527 250.376 310.78 250.457 311.01 250.587C311.239 250.716 311.44 250.891 311.6 251.1Z" fill="white"/>
<path d="M313.7 233L314.7 234.2C315.029 234.612 315.183 235.137 315.126 235.662C315.07 236.186 314.809 236.667 314.4 237L313.2 238C312.788 238.329 312.263 238.482 311.738 238.426C311.214 238.37 310.733 238.109 310.4 237.7L309.4 236.5C309.071 236.088 308.918 235.563 308.974 235.038C309.03 234.514 309.291 234.033 309.7 233.7L310.9 232.7C311.312 232.371 311.837 232.218 312.362 232.274C312.886 232.33 313.367 232.591 313.7 233Z" fill="white"/>
<path d="M325.8 271.1L326.8 272.3C327.129 272.712 327.283 273.237 327.226 273.762C327.17 274.286 326.909 274.767 326.5 275.1L325.3 276.1C324.888 276.429 324.363 276.582 323.838 276.526C323.314 276.47 322.833 276.209 322.5 275.8L321.5 274.6C321.171 274.188 321.018 273.663 321.074 273.138C321.13 272.614 321.391 272.133 321.8 271.8L323 270.8C323.412 270.471 323.937 270.318 324.462 270.374C324.986 270.43 325.467 270.691 325.8 271.1Z" fill="white"/>
<path d="M327.9 253L328.9 254.2C329.229 254.612 329.383 255.137 329.326 255.662C329.27 256.186 329.009 256.667 328.6 257L327.4 258C326.988 258.329 326.463 258.482 325.938 258.426C325.414 258.37 324.933 258.109 324.6 257.7L323.6 256.5C323.271 256.088 323.117 255.563 323.174 255.038C323.23 254.514 323.491 254.033 323.9 253.7L325.1 252.7C325.512 252.371 326.037 252.218 326.562 252.274C327.086 252.33 327.567 252.591 327.9 253Z" fill="white"/>
<path d="M330 234.9L331 236.1C331.329 236.512 331.482 237.037 331.426 237.562C331.37 238.086 331.109 238.567 330.7 238.9L329.5 239.9C329.088 240.229 328.563 240.383 328.038 240.326C327.514 240.27 327.033 240.009 326.7 239.6L325.7 238.4C325.371 237.988 325.218 237.463 325.274 236.938C325.33 236.414 325.591 235.933 326 235.6L327.2 234.6C327.612 234.271 328.137 234.117 328.662 234.174C329.186 234.23 329.667 234.491 330 234.9Z" fill="white"/>
<path d="M342 273L343 274.2C343.329 274.612 343.482 275.137 343.426 275.662C343.37 276.186 343.109 276.667 342.7 277L341.5 278C341.088 278.329 340.563 278.482 340.038 278.426C339.514 278.37 339.033 278.109 338.7 277.7L337.7 276.5C337.371 276.088 337.218 275.563 337.274 275.038C337.33 274.514 337.591 274.033 338 273.7L339.2 272.7C339.401 272.529 339.634 272.401 339.886 272.323C340.138 272.246 340.402 272.22 340.664 272.248C340.927 272.276 341.18 272.357 341.41 272.487C341.639 272.616 341.84 272.791 342 273Z" fill="white"/>
<path d="M344.2 254.9L345.2 256.1C345.529 256.512 345.683 257.037 345.626 257.562C345.57 258.086 345.309 258.567 344.9 258.9L343.7 259.9C343.288 260.229 342.763 260.383 342.238 260.326C341.714 260.27 341.233 260.009 340.9 259.6L339.9 258.4C339.571 257.988 339.418 257.463 339.474 256.938C339.53 256.414 339.791 255.933 340.2 255.6L341.4 254.6C341.812 254.271 342.337 254.117 342.862 254.174C343.386 254.23 343.867 254.491 344.2 254.9Z" fill="white"/>
<path d="M346.3 236.9L347.3 238.1C347.629 238.512 347.783 239.037 347.726 239.562C347.67 240.086 347.409 240.567 347 240.9L345.8 241.9C345.388 242.229 344.863 242.383 344.338 242.326C343.814 242.27 343.333 242.009 343 241.6L342 240.4C341.671 239.988 341.518 239.463 341.574 238.938C341.63 238.414 341.891 237.933 342.3 237.6L343.5 236.6C343.696 236.419 343.928 236.282 344.181 236.198C344.435 236.114 344.703 236.086 344.968 236.114C345.233 236.143 345.489 236.227 345.719 236.363C345.949 236.499 346.147 236.682 346.3 236.9Z" fill="white"/>
<path d="M358.3 274.9L359.3 276.1C359.629 276.512 359.783 277.037 359.726 277.562C359.67 278.086 359.409 278.567 359 278.9L357.8 279.9C357.388 280.229 356.863 280.382 356.338 280.326C355.814 280.27 355.333 280.009 355 279.6L354 278.4C353.671 277.988 353.518 277.463 353.574 276.938C353.63 276.414 353.891 275.933 354.3 275.6L355.5 274.6C355.701 274.429 355.934 274.301 356.186 274.223C356.438 274.146 356.702 274.12 356.964 274.148C357.226 274.176 357.48 274.257 357.71 274.387C357.939 274.516 358.14 274.691 358.3 274.9Z" fill="white"/>
<path d="M360.4 256.8L361.4 258C361.729 258.412 361.882 258.937 361.826 259.462C361.77 259.986 361.509 260.467 361.1 260.8L359.9 261.8C359.488 262.129 358.963 262.283 358.438 262.226C357.914 262.17 357.433 261.909 357.1 261.5L356.1 260.3C355.771 259.888 355.617 259.363 355.674 258.838C355.73 258.314 355.991 257.833 356.4 257.5L357.6 256.5C358.012 256.171 358.537 256.018 359.062 256.074C359.586 256.13 360.067 256.391 360.4 256.8Z" fill="white"/>
<path d="M362.5 238.8L363.5 240C363.829 240.412 363.982 240.937 363.926 241.462C363.87 241.986 363.609 242.467 363.2 242.8L362 243.8C361.588 244.129 361.063 244.283 360.538 244.226C360.014 244.17 359.533 243.909 359.2 243.5L358.2 242.3C357.871 241.888 357.717 241.363 357.774 240.838C357.83 240.314 358.091 239.833 358.5 239.5L359.7 238.5C359.9 238.328 360.133 238.198 360.385 238.12C360.637 238.041 360.903 238.015 361.165 238.043C361.427 238.072 361.681 238.153 361.911 238.283C362.14 238.413 362.341 238.589 362.5 238.8Z" fill="white"/>
<path d="M374.6 276.8L375.6 278C375.929 278.412 376.082 278.937 376.026 279.462C375.97 279.986 375.709 280.467 375.3 280.8L374.1 281.8C373.688 282.129 373.163 282.283 372.638 282.226C372.114 282.17 371.633 281.909 371.3 281.5L370.3 280.3C369.971 279.888 369.817 279.363 369.874 278.838C369.93 278.314 370.191 277.833 370.6 277.5L371.8 276.5C372.212 276.171 372.737 276.018 373.262 276.074C373.786 276.13 374.267 276.391 374.6 276.8Z" fill="white"/>
<path d="M376.7 258.7L377.7 259.9C378.029 260.312 378.183 260.837 378.126 261.362C378.07 261.886 377.809 262.367 377.4 262.7L376.2 263.7C375.788 264.029 375.263 264.183 374.738 264.126C374.214 264.07 373.733 263.809 373.4 263.4L372.4 262.2C372.071 261.788 371.917 261.263 371.974 260.738C372.03 260.214 372.291 259.733 372.7 259.4L373.9 258.4C374.312 258.071 374.837 257.918 375.362 257.974C375.886 258.03 376.367 258.291 376.7 258.7Z" fill="white"/>
<path d="M378.8 240.7L379.8 241.9C380.129 242.312 380.282 242.837 380.226 243.362C380.17 243.886 379.909 244.367 379.5 244.7L378.3 245.7C377.888 246.029 377.363 246.182 376.838 246.126C376.314 246.07 375.833 245.809 375.5 245.4L374.5 244.2C374.171 243.788 374.017 243.263 374.074 242.738C374.13 242.214 374.391 241.733 374.8 241.4L376 240.4C376.201 240.229 376.434 240.101 376.686 240.023C376.937 239.946 377.202 239.92 377.464 239.948C377.726 239.976 377.98 240.057 378.21 240.187C378.439 240.316 378.64 240.491 378.8 240.7Z" fill="white"/>
<path d="M380.9 222.6L381.9 223.8C382.229 224.212 382.382 224.737 382.326 225.262C382.27 225.786 382.009 226.267 381.6 226.6L380.4 227.6C379.988 227.929 379.463 228.082 378.938 228.026C378.414 227.97 377.933 227.709 377.6 227.3L376.6 226.1C376.271 225.688 376.117 225.163 376.174 224.638C376.23 224.114 376.491 223.633 376.9 223.3L378.1 222.3C378.301 222.129 378.534 222.001 378.786 221.923C379.037 221.846 379.302 221.82 379.564 221.848C379.826 221.876 380.08 221.957 380.31 222.087C380.539 222.216 380.74 222.391 380.9 222.6Z" fill="white"/>
<path d="M390.8 278.7L391.8 279.9C392.129 280.312 392.282 280.837 392.226 281.362C392.17 281.886 391.909 282.367 391.5 282.7L390.3 283.7C389.888 284.029 389.363 284.182 388.838 284.126C388.314 284.07 387.833 283.809 387.5 283.4L386.5 282.2C386.171 281.788 386.017 281.263 386.074 280.738C386.13 280.214 386.391 279.733 386.8 279.4L388 278.4C388.2 278.228 388.433 278.098 388.685 278.02C388.937 277.941 389.203 277.915 389.465 277.943C389.727 277.972 389.981 278.053 390.211 278.183C390.441 278.313 390.641 278.489 390.8 278.7Z" fill="white"/>
<path d="M393 260.7L394 261.9C394.329 262.312 394.482 262.837 394.426 263.362C394.37 263.886 394.109 264.367 393.7 264.7L392.5 265.7C392.088 266.029 391.563 266.182 391.038 266.126C390.514 266.07 390.033 265.809 389.7 265.4L388.7 264.2C388.371 263.788 388.217 263.263 388.274 262.738C388.33 262.214 388.591 261.733 389 261.4L390.2 260.4C390.396 260.219 390.628 260.082 390.881 259.998C391.135 259.914 391.403 259.886 391.668 259.914C391.933 259.943 392.189 260.027 392.419 260.163C392.649 260.299 392.847 260.482 393 260.7Z" fill="white"/>
<path d="M395.1 242.6L396.1 243.8C396.429 244.212 396.582 244.737 396.526 245.262C396.47 245.786 396.209 246.267 395.8 246.6L394.6 247.6C394.188 247.929 393.663 248.082 393.138 248.026C392.614 247.97 392.133 247.709 391.8 247.3L390.8 246.1C390.471 245.688 390.317 245.163 390.374 244.638C390.43 244.114 390.691 243.633 391.1 243.3L392.3 242.3C392.712 241.971 393.237 241.818 393.762 241.874C394.286 241.93 394.767 242.191 395.1 242.6Z" fill="white"/>
<path d="M397.2 224.5L398.2 225.7C398.529 226.112 398.683 226.637 398.626 227.162C398.57 227.686 398.309 228.167 397.9 228.5L396.7 229.5C396.288 229.829 395.763 229.982 395.238 229.926C394.714 229.87 394.233 229.609 393.9 229.2L392.9 228C392.571 227.588 392.417 227.063 392.474 226.538C392.53 226.014 392.791 225.533 393.2 225.2L394.4 224.2C394.812 223.871 395.337 223.718 395.862 223.774C396.386 223.83 396.867 224.091 397.2 224.5Z" fill="white"/>
</g>
<path d="M399.5 248.8C406.959 256.821 413.162 265.924 417.9 275.8C417.9 275.8 418.4 241.2 419.1 238.8C426.285 240.251 433.732 239.662 440.6 237.1C440.6 237.1 443.5 263.8 447.8 284.1C452.1 304.4 456.9 334.7 442.3 338.7C427.7 342.7 414.4 333.5 396.7 309.8C379 286.1 380.5 274.3 380.5 268.3C380.4 261.2 390 243 399.5 248.8Z" fill="#6DAFA7"/>
<path d="M417.9 275.9C417.9 275.9 417.2 297.4 419.8 311" stroke="#22272E" stroke-width="1.8" stroke-linecap="round" stroke-linejoin="round"/>
<path d="M418.5 248.2C418.5 248.2 431.3 252.2 441.5 245.7" stroke="#22272E" stroke-width="1.8" stroke-linecap="round" stroke-linejoin="round"/>
<path d="M437.6 243.1C437.6 243.318 437.536 243.53 437.415 243.711C437.294 243.892 437.122 244.033 436.921 244.116C436.72 244.2 436.499 244.221 436.285 244.179C436.072 244.136 435.876 244.032 435.722 243.878C435.568 243.724 435.464 243.528 435.421 243.315C435.379 243.101 435.4 242.88 435.484 242.679C435.567 242.478 435.708 242.306 435.889 242.185C436.07 242.065 436.282 242 436.5 242C436.648 241.984 436.798 242.002 436.939 242.052C437.08 242.101 437.207 242.182 437.313 242.287C437.418 242.393 437.499 242.52 437.548 242.661C437.598 242.802 437.616 242.952 437.6 243.1Z" stroke="#22272E" stroke-width="1.8" stroke-linecap="round" stroke-linejoin="round"/>
<path d="M439.8 237.5C439.8 237.5 438.8 230.4 443.6 228.1C448.4 225.8 452.8 226.9 457.7 223.3C462.6 219.7 470.9 208.3 470.6 205.8C470.3 203.3 468.5 204.4 465.2 207.1C463.772 208.432 462.155 209.544 460.4 210.4C460.4 210.4 462.4 203.6 461.5 198.6C460.6 193.6 457.2 193 456.4 193.5C455.6 194 456.4 196.1 456.2 200.1C456 204.1 454.8 207.4 451.3 209.9C451.742 207.548 451.499 205.118 450.6 202.9C449 199.1 446.3 196.6 444.2 197.2C442.1 197.8 442.8 199.4 443.8 201.6C444.8 203.8 446.4 207.8 442.2 212C441.368 212.926 440.233 213.526 438.999 213.692C437.765 213.858 436.512 213.579 435.465 212.905C434.418 212.231 433.645 211.206 433.285 210.014C432.925 208.822 433.001 207.541 433.5 206.4C435.8 200.8 439.3 199.5 441.1 198C442.9 196.5 442.4 193.8 438.6 194.4C434.8 195 428.3 199.6 424.5 204.7C420.7 209.8 419.6 216.7 419.5 223.5C419.4 230.3 419.1 239 419.1 239C419.1 239 421.6 242.1 427.1 242.1C432.6 242.1 439.8 240 439.8 237.5Z" fill="#F4C2C9"/>
<path d="M460.4 210.5C459.299 213.454 457.927 216.3 456.3 219" stroke="#E26E85" stroke-width="1.8" stroke-linecap="round" stroke-linejoin="round"/>
<path d="M451.2 209.9C450.785 212.722 449.686 215.399 448 217.7" stroke="#E26E85" stroke-width="1.8" stroke-linecap="round" stroke-linejoin="round"/>
<path d="M427.6 338.3C427.6 338.3 425.1 334.3 431.2 328.2C437.3 322.1 450.3 322.8 450.7 329.1" stroke="#22272E" stroke-width="1.8" stroke-linecap="round" stroke-linejoin="round"/>
<path d="M330.5 225.1C330.5 225.1 324.9 224.8 321.4 232.4C317.9 240 318.9 255.6 322.7 258C326.5 260.4 336.7 250.1 336.7 250.1C336.7 250.1 345.3 261.7 351.5 261.2C357.7 260.7 365.5 249.6 365 237.4C364.5 225.2 359.5 223.8 356.8 223.5C354.2 223 330.5 225.1 330.5 225.1Z" fill="white"/>
<path d="M336.7 250C336.7 250 317 271.8 316.8 275.9C316.6 280 323.3 281.3 325.1 280.4C326.9 279.5 338.7 249.7 336.7 250Z" fill="white"/>
<path d="M336.5 252.7C336.5 252.7 339.9 276.9 342.1 280.7C344.3 284.5 351.3 278.8 350.5 275.5C349.7 272.2 340.2 252.9 336.7 250.1C333.2 247.3 336.5 252.7 336.5 252.7Z" fill="white"/>
<path d="M360.9 203.8C360.9 203.8 358.7 217.5 360.3 227.8C360.3 227.8 350.8 248.9 336.8 248.9C329.9 248.9 327.7 234.7 328.9 229.1L331 213.5C331 213.5 345 189.3 360.9 203.8Z" fill="#F4C2C9"/>
<path d="M349.4 218.3C343.4 221.9 336.8 223.7 329.8 222.3L329 228.2C336.6 226.7 344.3 224.5 349.4 218.3Z" fill="#E26E85"/>
<path d="M317.3 174.3C317.546 181.144 317.279 187.996 316.5 194.8C315.2 207.5 315.7 215.8 326.5 221.2C337.3 226.6 354.8 221.7 361.2 206.3C367.6 190.9 376.1 161.6 353.1 157.2C330.1 152.8 317 158.3 317.3 174.3Z" fill="#F4C2C9"/>
<path d="M333.3 164.2C333.3 164.2 337.7 179 347.5 182.8C357.3 186.6 355.8 195.8 360.7 194.7C365.6 193.6 369.4 189.6 372.7 193.5C376 197.4 376.3 163.1 359.4 157.2C342.5 151.3 324.6 151 319.3 156.4C314 161.8 315.9 179.1 315.9 179.1C315.9 179.1 326.7 176.6 333.3 164.2Z" fill="#22272E"/>
<path d="M361.8 194.8C361.8 194.8 364.1 189.1 369 190.1C373.9 191.1 373.5 206.6 361 205.8" fill="#F4C2C9"/>
<path d="M326.8 189.5C327.366 190.831 327.437 192.321 327 193.7C326.804 194.409 326.5 195.083 326.1 195.7L325.5 196.6C325.4 196.8 325.2 197.1 325.1 197.3C324.923 197.779 324.866 198.294 324.936 198.8C325.006 199.306 325.2 199.787 325.5 200.2C326.231 201.222 327.289 201.963 328.5 202.3C327.823 202.553 327.077 202.553 326.4 202.3C325.686 202.095 325.034 201.717 324.5 201.2C323.9 200.658 323.452 199.969 323.2 199.2C323.017 198.365 323.086 197.495 323.4 196.7C323.578 196.354 323.778 196.02 324 195.7C324.2 195.4 324.4 195.2 324.6 194.9C324.991 194.405 325.326 193.868 325.6 193.3C326.251 192.127 326.659 190.834 326.8 189.5Z" fill="#22272E"/>
<path d="M334.2 209C335.755 209.351 337.382 209.179 338.829 208.51C340.276 207.841 341.461 206.712 342.2 205.3" stroke="#22272E" stroke-width="1.8" stroke-linecap="round" stroke-linejoin="round"/>
<path d="M340.6 189.5C340.6 189.5 341 191.7 344.8 192.1C345.711 192.217 346.637 192.073 347.47 191.683C348.302 191.294 349.006 190.675 349.5 189.9" stroke="#22272E" stroke-width="1.8" stroke-linecap="round" stroke-linejoin="round"/>
<path d="M325 187.9C325 187.9 322 190.3 319.6 187.3" stroke="#22272E" stroke-width="1.8" stroke-linecap="round" stroke-linejoin="round"/>
<path d="M327.8 178.4C328 177.1 326.5 174.9 324.5 174.3C322.5 173.7 319.3 176.5 319.6 177.7C319.9 178.9 321.9 177.1 323.7 177.3C325.3 177.5 327.6 179.5 327.8 178.4Z" fill="#22272E"/>
<path d="M351.7 180.6C351.9 179.3 350.4 177.1 348.4 176.5C346.4 175.9 343.2 178.7 343.5 179.9C343.8 181.1 345.8 179.3 347.6 179.5C349.4 179.7 351.6 181.7 351.7 180.6Z" fill="#22272E"/>
<path d="M368.6 194.8C367.746 194.98 366.994 195.481 366.5 196.2C366.377 196.519 366.309 196.858 366.3 197.2V198.6C366.307 199.18 366.205 199.757 366 200.3C365.899 200.614 365.73 200.902 365.505 201.144C365.281 201.386 365.006 201.576 364.7 201.7C364.163 201.902 363.587 201.981 363.016 201.929C362.444 201.877 361.892 201.696 361.4 201.4C362.294 201.245 363.146 200.904 363.9 200.4C364.143 200.133 364.323 199.814 364.427 199.468C364.531 199.122 364.556 198.757 364.5 198.4V196.8C364.556 196.156 364.84 195.554 365.3 195.1C365.785 194.789 366.339 194.599 366.913 194.546C367.488 194.494 368.066 194.581 368.6 194.8Z" fill="#22272E"/>
<path d="M318 197.7C322.915 197.7 326.9 193.357 326.9 188C326.9 182.643 322.915 178.3 318 178.3C313.085 178.3 309.1 182.643 309.1 188C309.1 193.357 313.085 197.7 318 197.7Z" stroke="#22272E" stroke-width="1.8" stroke-linecap="round" stroke-linejoin="round"/>
<path d="M343.68 201.07C349.369 201.07 353.98 196.459 353.98 190.77C353.98 185.081 349.369 180.47 343.68 180.47C337.991 180.47 333.38 185.081 333.38 190.77C333.38 196.459 337.991 201.07 343.68 201.07Z" stroke="#22272E" stroke-width="1.8" stroke-linecap="round" stroke-linejoin="round"/>
<path d="M326.9 188.8C326.9 188.8 328.5 187.1 333.5 189.2" stroke="#22272E" stroke-width="1.8" stroke-linecap="round" stroke-linejoin="round"/>
<path d="M354 190.8L363.8 191.7" stroke="#22272E" stroke-width="1.8" stroke-linecap="round" stroke-linejoin="round"/>
<path d="M366.2 203.4L362.8 209.3C362.702 209.474 362.651 209.671 362.653 209.87C362.655 210.07 362.709 210.266 362.81 210.438C362.912 210.61 363.056 210.753 363.23 210.851C363.404 210.95 363.6 211.001 363.8 211H370.6C370.8 211.001 370.996 210.95 371.17 210.851C371.344 210.753 371.488 210.61 371.59 210.438C371.691 210.266 371.745 210.07 371.747 209.87C371.749 209.671 371.698 209.474 371.6 209.3L368.2 203.4C368.089 203.237 367.94 203.104 367.766 203.012C367.591 202.919 367.397 202.871 367.2 202.871C367.003 202.871 366.809 202.919 366.634 203.012C366.46 203.104 366.311 203.237 366.2 203.4Z" fill="black"/>
<path d="M505.5 403.5L507.9 425.7C507.9 427.3 516.2 428.5 526.4 428.5C536.6 428.5 544.9 427.2 544.9 425.7L547.3 403.5H505.5Z" fill="#22272E"/>
<path d="M547.3 403.5C547.3 405.3 537.9 406.7 526.4 406.7C514.9 406.7 505.5 405.3 505.5 403.5C505.5 401.7 514.9 400.3 526.4 400.3C537.9 400.3 547.3 401.8 547.3 403.5Z" fill="black"/>
<path d="M520.8 403.5C520.8 403.5 509.6 399.1 510.8 390.5C512 381.9 520.3 399.7 522.4 397C524.5 394.3 521.8 381.2 526.4 380C531 378.8 529.8 397.2 529.8 397.2C532.647 395.759 535.219 393.83 537.4 391.5C540.3 388.1 544.5 395.7 532.6 403.5C528.821 405.058 524.579 405.058 520.8 403.5Z" fill="#6DAFA7"/>
<path d="M619.5 397.7C619.5 398.768 619.183 399.812 618.59 400.7C617.997 401.588 617.153 402.28 616.167 402.689C615.18 403.098 614.094 403.205 613.047 402.996C611.999 402.788 611.037 402.274 610.282 401.518C609.526 400.763 609.012 399.801 608.804 398.753C608.595 397.706 608.702 396.62 609.111 395.633C609.52 394.647 610.212 393.803 611.1 393.21C611.988 392.617 613.032 392.3 614.1 392.3C615.523 392.328 616.881 392.906 617.887 393.913C618.894 394.919 619.472 396.277 619.5 397.7Z" fill="black"/>
<path d="M234.6 417C231.64 417.75 228.899 419.189 226.6 421.2C221.383 425.401 214.786 427.505 208.1 427.1C204.157 426.925 200.305 425.853 196.839 423.964C193.373 422.075 190.384 419.419 188.1 416.2C203.551 417.755 219.105 418.023 234.6 417Z" fill="white"/>
<path d="M208 427.2C190.4 427.5 165.8 427.2 158.2 427.1C149.4 427.8 139.5 424.4 132.9 413.5C132.9 413.5 139.4 414.5 156.1 414.6C172.8 414.7 186.1 413.5 186.1 413.5C186.7 414.5 187.3 415.4 187.9 416.3C190.243 419.483 193.259 422.11 196.733 423.994C200.207 425.878 204.054 426.973 208 427.2Z" fill="#22272E"/>
</svg>
